<svg width="958" height="106" viewBox="0 0 958 106" fill="none" xmlns="http://www.w3.org/2000/svg">
<path d="M62.9006 104L30.8835 61.7415H25.3153V104H0.705966V2.18182H25.3153V41.706H29.2429L60.7628 2.18182H91.5369L52.3111 50.2571L93.5753 104H62.9006ZM213.647 53.0909C213.647 64.2936 211.492 73.7893 207.184 81.5781C202.875 89.367 197.042 95.2831 189.684 99.3267C182.359 103.37 174.139 105.392 165.025 105.392C155.877 105.392 147.641 103.354 140.316 99.277C132.991 95.2003 127.174 89.2841 122.865 81.5284C118.59 73.7396 116.452 64.2604 116.452 53.0909C116.452 41.8883 118.59 32.3925 122.865 24.6037C127.174 16.8149 132.991 10.8987 140.316 6.85511C147.641 2.81155 155.877 0.789769 165.025 0.789769C174.139 0.789769 182.359 2.81155 189.684 6.85511C197.042 10.8987 202.875 16.8149 207.184 24.6037C211.492 32.3925 213.647 41.8883 213.647 53.0909ZM188.49 53.0909C188.49 46.4621 187.546 40.8608 185.657 36.2869C183.801 31.7131 181.116 28.2495 177.603 25.8963C174.123 23.5431 169.93 22.3665 165.025 22.3665C160.152 22.3665 155.96 23.5431 152.446 25.8963C148.933 28.2495 146.232 31.7131 144.343 36.2869C142.487 40.8608 141.559 46.4621 141.559 53.0909C141.559 59.7197 142.487 65.321 144.343 69.8949C146.232 74.4687 148.933 77.9323 152.446 80.2855C155.96 82.6387 160.152 83.8153 165.025 83.8153C169.93 83.8153 174.123 82.6387 177.603 80.2855C181.116 77.9323 183.801 74.4687 185.657 69.8949C187.546 65.321 188.49 59.7197 188.49 53.0909ZM249.015 104V2.18182H273.624V43.0483H313.745V2.18182H338.304V104H313.745V63.0838H273.624V104H249.015ZM371.41 22.1676V2.18182H457.468V22.1676H426.595V104H402.333V22.1676H371.41ZM499.797 104H473.348L507.701 2.18182H540.464L574.818 104H548.369L524.456 27.8352H523.66L499.797 104ZM496.267 63.929H551.551V82.6222H496.267V63.929ZM668.975 104L636.958 61.7415H631.39V104H606.78V2.18182H631.39V41.706H635.317L666.837 2.18182H697.611L658.385 50.2571L699.65 104H668.975ZM726.305 22.1676V2.18182H812.363V22.1676H781.489V104H757.228V22.1676H726.305ZM861.241 38.0767H883.912C892.231 38.0767 899.456 39.419 905.588 42.1037C911.719 44.7884 916.459 48.5668 919.806 53.4389C923.187 58.3111 924.877 64.045 924.877 70.6406C924.877 77.2363 923.187 83.0365 919.806 88.0412C916.459 93.0459 911.719 96.9569 905.588 99.7741C899.456 102.591 892.231 104 883.912 104H845.879V2.18182H870.439V84.5114H883.912C887.491 84.5114 890.507 83.8982 892.96 82.6719C895.446 81.4124 897.318 79.7221 898.578 77.6009C899.87 75.4465 900.5 73.0601 900.467 70.4418C900.5 66.6634 899.092 63.5147 896.241 60.9957C893.391 58.4437 889.281 57.1676 883.912 57.1676H861.241V38.0767ZM957.143 2.18182V104H932.583V2.18182H957.143Z" fill="#1F1F1F" fill-opacity="0.02"/>
</svg>
