<svg width="264" height="49" viewBox="0 0 264 49" fill="none" xmlns="http://www.w3.org/2000/svg">
<path d="M37.8405 46.5198H38.1929C38.5217 46.5198 38.8271 46.3789 39.1089 46.0969C39.3908 45.815 39.6257 45.4861 39.8136 45.1101C40.0485 44.7342 40.2129 44.3348 40.3069 43.9119C40.4008 43.442 40.4478 43.0191 40.4478 42.6432V5.56828L22.2674 48L5.00313 7.75331V42.6432C5.00313 43.0191 5.0501 43.442 5.14406 43.9119C5.23802 44.3348 5.37895 44.7342 5.56686 45.1101C5.80175 45.4861 6.06013 45.815 6.34199 46.0969C6.62386 46.3789 6.9527 46.5198 7.32852 46.5198H7.68086V47.2247H0V46.5198H0.352333C0.681177 46.5198 0.986532 46.3789 1.2684 46.0969C1.55026 45.815 1.78515 45.4861 1.97306 45.1101C2.16097 44.7342 2.30191 44.3348 2.39586 43.9119C2.48982 43.442 2.5368 43.0191 2.5368 42.6432V5.07489C2.5368 4.74596 2.48982 4.37004 2.39586 3.94714C2.30191 3.52423 2.16097 3.12482 1.97306 2.7489C1.78515 2.37298 1.55026 2.06754 1.2684 1.8326C0.986532 1.55066 0.681177 1.40969 0.352333 1.40969H0V0.704845H7.18759L23.5358 39.2599L39.8841 0.704845H47.8468V1.40969H47.4945C47.1186 1.40969 46.7898 1.55066 46.5079 1.8326C46.2261 2.06754 45.9677 2.37298 45.7328 2.7489C45.5449 3.12482 45.404 3.52423 45.31 3.94714C45.2161 4.37004 45.1691 4.74596 45.1691 5.07489V42.6432C45.1691 43.0191 45.2161 43.442 45.31 43.9119C45.404 44.3348 45.5449 44.7342 45.7328 45.1101C45.9677 45.4861 46.2261 45.815 46.5079 46.0969C46.7898 46.3789 47.1186 46.5198 47.4945 46.5198H47.8468V47.2247H37.8405V46.5198Z" fill="white"/>
<path d="M54.6358 0.704845H64.6421C69.8566 0.704845 73.8027 1.71512 76.4805 3.73568C79.2052 5.70925 80.5675 8.52863 80.5675 12.1938C80.5675 14.1674 80.0977 15.9295 79.1582 17.4802C78.2186 19.0308 76.9737 20.3465 75.4235 21.4273C73.9202 22.4611 72.2055 23.2599 70.2794 23.8238C68.4003 24.3877 66.5212 24.6696 64.6421 24.6696H61.9643V42.6432C61.9643 43.0191 62.0113 43.442 62.1053 43.9119C62.1992 44.3348 62.3402 44.7342 62.5281 45.1101C62.763 45.4861 62.9978 45.815 63.2327 46.0969C63.5146 46.3789 63.8434 46.5198 64.2193 46.5198H64.5716V47.2247H54.6358V46.5198H54.9881C55.317 46.5198 55.6224 46.3789 55.9042 46.0969C56.1861 45.815 56.421 45.4861 56.6089 45.1101C56.7968 44.7342 56.9377 44.3348 57.0317 43.9119C57.1256 43.442 57.1726 43.0191 57.1726 42.6432V5.07489C57.1726 4.41703 56.9847 3.66519 56.6089 2.81938C56.2331 1.97357 55.6928 1.50367 54.9881 1.40969H54.6358V0.704845ZM61.9643 3.17181V22.2026H64.0783C65.9574 22.2026 67.6252 21.9442 69.0815 21.4273C70.5848 20.9104 71.8297 20.2291 72.8162 19.3833C73.8027 18.5374 74.5544 17.5742 75.0711 16.4934C75.5879 15.4126 75.8463 14.3084 75.8463 13.1806C75.8463 11.8179 75.6114 10.5492 75.1416 9.37445C74.7188 8.15272 73.9906 7.09545 72.9571 6.20264C71.9706 5.26285 70.6552 4.53451 69.011 4.01762C67.3668 3.45374 65.3467 3.17181 62.9509 3.17181H61.9643Z" fill="white"/>
<path d="M111.372 2.53745C107.896 2.53745 104.865 3.17181 102.282 4.44053C99.7449 5.66226 97.6309 7.2834 95.9397 9.30396C94.2485 11.2775 92.9801 13.5095 92.1345 16C91.3359 18.4905 90.9366 20.9574 90.9366 23.4009C90.9366 26.1733 91.4768 28.8987 92.5573 31.5771C93.6378 34.2085 95.1176 36.558 96.9967 38.6256C98.9228 40.6461 101.154 42.2908 103.691 43.5595C106.228 44.7812 108.976 45.3921 111.936 45.3921C112.781 45.3921 113.768 45.2981 114.895 45.1101C116.07 44.9222 117.221 44.5698 118.348 44.0529C119.476 43.489 120.509 42.7137 121.449 41.7269C122.435 40.7401 123.187 39.4479 123.704 37.8502H124.408V45.674C123.704 45.674 122.952 45.768 122.153 45.956C121.402 46.1439 120.556 46.3554 119.616 46.5903C118.395 46.9192 117.033 47.2247 115.529 47.5066C114.073 47.7886 112.523 47.9295 110.879 47.9295C106.792 47.9295 103.198 47.2247 100.097 45.815C96.9967 44.4053 94.4129 42.5727 92.3459 40.3172C90.2789 38.0617 88.7286 35.5242 87.6951 32.7048C86.6616 29.8385 86.1448 26.9486 86.1448 24.0352C86.1448 21.1219 86.6616 18.232 87.6951 15.3656C88.7286 12.4993 90.3024 9.93833 92.4164 7.68282C94.5303 5.38032 97.1846 3.52423 100.379 2.11454C103.574 0.704845 107.332 0 111.654 0C113.204 0 114.59 0.140969 115.811 0.422906C117.08 0.704844 118.207 0.986782 119.194 1.26872C119.898 1.50367 120.533 1.69163 121.096 1.8326C121.707 1.92658 122.294 1.97357 122.858 1.97357V9.79736H122.153C121.871 8.34067 121.355 7.14244 120.603 6.20264C119.851 5.21586 118.959 4.46402 117.925 3.94714C116.939 3.43025 115.858 3.07783 114.684 2.88987C113.556 2.65492 112.452 2.53745 111.372 2.53745Z" fill="white"/>
<path d="M144.264 12.1126H145.766L148.376 18.5184H148.472L151.082 12.1126H152.584V20.3532H151.407V14.39H151.33L148.912 20.3412H147.935L145.517 14.386H145.441V20.3532H144.264V12.1126Z" fill="white"/>
<path d="M154.608 20.3532V12.1126H159.748V13.1829H155.845V15.6937H159.48V16.76H155.845V19.2829H159.796V20.3532H154.608Z" fill="white"/>
<path d="M161.006 22.345V19.299H161.546C161.73 19.1434 161.902 18.9221 162.062 18.6351C162.223 18.3481 162.359 17.9605 162.471 17.4722C162.583 16.984 162.66 16.3577 162.703 15.5931L162.895 12.1126H167.952V19.299H168.88V22.3329H167.695V20.3532H162.191V22.345H161.006ZM163.003 19.299H166.767V13.1829H164.016L163.888 15.5931C163.853 16.1753 163.796 16.6983 163.716 17.1624C163.639 17.6265 163.538 18.0369 163.416 18.3937C163.296 18.7478 163.158 19.0495 163.003 19.299Z" fill="white"/>
<path d="M170.461 12.1126H171.686V18.1643H171.762L175.934 12.1126H177.079V20.3532H175.842V14.3096H175.766L171.602 20.3532H170.461V12.1126Z" fill="white"/>
<path d="M186.383 19.2548L186.275 22.3007H185.042V20.3532H184.466V19.2548H186.383ZM179.109 20.3532V12.1126H180.294V19.2749H184.25V12.1126H185.439V20.3532H179.109Z" fill="white"/>
<path d="M187.966 12.1126H189.191V18.1643H189.267L193.439 12.1126H194.584V20.3532H193.347V14.3096H193.271L189.107 20.3532H187.966V12.1126Z" fill="white"/>
<path d="M196.614 20.3532V12.1126H197.851V15.6937H201.939V12.1126H203.18V20.3532H201.939V16.76H197.851V20.3532H196.614Z" fill="white"/>
<path d="M212.017 14.7924H210.768C210.72 14.5242 210.63 14.2881 210.5 14.0842C210.369 13.8804 210.209 13.7074 210.019 13.5652C209.83 13.423 209.617 13.3157 209.383 13.2433C209.15 13.1709 208.903 13.1346 208.642 13.1346C208.169 13.1346 207.746 13.254 207.373 13.4928C207.002 13.7315 206.708 14.0816 206.492 14.5429C206.278 15.0043 206.172 15.5677 206.172 16.2329C206.172 16.9035 206.278 17.4696 206.492 17.9309C206.708 18.3923 207.003 18.7411 207.377 18.9771C207.75 19.2132 208.171 19.3312 208.638 19.3312C208.897 19.3312 209.142 19.2963 209.375 19.2266C209.609 19.1542 209.822 19.0482 210.011 18.9087C210.201 18.7692 210.361 18.5989 210.492 18.3977C210.625 18.1938 210.717 17.9605 210.768 17.6976L212.017 17.7016C211.95 18.1067 211.821 18.4795 211.629 18.8202C211.439 19.1582 211.195 19.4506 210.896 19.6974C210.6 19.9415 210.261 20.1306 209.879 20.2647C209.497 20.3988 209.081 20.4659 208.63 20.4659C207.92 20.4659 207.287 20.2969 206.732 19.9589C206.177 19.6182 205.739 19.1314 205.419 18.4983C205.101 17.8652 204.943 17.1101 204.943 16.2329C204.943 15.3531 205.103 14.5979 205.423 13.9676C205.743 13.3345 206.181 12.849 206.736 12.511C207.291 12.1703 207.923 11.9999 208.63 11.9999C209.065 11.9999 209.471 12.063 209.847 12.1891C210.226 12.3125 210.566 12.4949 210.868 12.7363C211.169 12.975 211.419 13.2674 211.617 13.6135C211.814 13.9568 211.947 14.3498 212.017 14.7924Z" fill="white"/>
<path d="M218.587 20.3532L215.833 16.6594H214.96V20.3532H213.723V12.1126H214.96V15.5931H215.364L218.463 12.1126H219.972L216.693 15.8024L220.096 20.3532H218.587Z" fill="white"/>
<path d="M221.468 12.1126H222.693V18.1643H222.769L226.941 12.1126H228.086V20.3532H226.849V14.3096H226.772L222.609 20.3532H221.468V12.1126Z" fill="white"/>
<path d="M230.116 20.3532V12.1126H235.256V13.1829H231.353V15.6937H234.988V16.76H231.353V19.2829H235.304V20.3532H230.116Z" fill="white"/>
<path d="M144.264 34.2427V26.0021H147.187C147.825 26.0021 148.353 26.1188 148.772 26.3521C149.191 26.5855 149.505 26.9047 149.713 27.3098C149.921 27.7122 150.025 28.1655 150.025 28.6698C150.025 29.1768 149.92 29.6328 149.709 30.0379C149.501 30.4403 149.186 30.7595 148.764 30.9955C148.345 31.2289 147.818 31.3456 147.183 31.3456H145.173V30.2914H147.071C147.474 30.2914 147.801 30.2216 148.052 30.0822C148.302 29.94 148.487 29.7468 148.604 29.5027C148.721 29.2586 148.78 28.981 148.78 28.6698C148.78 28.3586 148.721 28.0823 148.604 27.8409C148.487 27.5995 148.301 27.4104 148.048 27.2736C147.797 27.1368 147.466 27.0684 147.055 27.0684H145.501V34.2427H144.264Z" fill="white"/>
<path d="M151.524 34.2427H150.211L153.161 26.0021H154.591L157.541 34.2427H156.228L153.91 27.4989H153.846L151.524 34.2427ZM151.744 31.0157H156.004V32.0618H151.744V31.0157Z" fill="white"/>
<path d="M158.33 36.2345V33.1885H158.871C159.055 33.0329 159.227 32.8116 159.387 32.5246C159.547 32.2375 159.683 31.8499 159.795 31.3617C159.908 30.8735 159.985 30.2471 160.028 29.4826L160.22 26.0021H165.276V33.1885H166.205V36.2224H165.02V34.2427H159.515V36.2345H158.33ZM160.328 33.1885H164.091V27.0724H161.341L161.213 29.4826C161.178 30.0647 161.121 30.5878 161.041 31.0519C160.963 31.5159 160.863 31.9264 160.74 32.2831C160.62 32.6372 160.483 32.939 160.328 33.1885Z" fill="white"/>
<path d="M167.786 26.0021H169.011V32.0538H169.087L173.259 26.0021H174.404V34.2427H173.167V28.199H173.09L168.927 34.2427H167.786V26.0021Z" fill="white"/>
<path d="M183.556 30.1224C183.556 31.0023 183.396 31.7587 183.076 32.3918C182.755 33.0222 182.316 33.5077 181.758 33.8484C181.203 34.1864 180.572 34.3554 179.865 34.3554C179.155 34.3554 178.521 34.1864 177.963 33.8484C177.408 33.5077 176.97 33.0208 176.65 32.3878C176.33 31.7547 176.169 30.9996 176.169 30.1224C176.169 29.2425 176.33 28.4874 176.65 27.857C176.97 27.2239 177.408 26.7384 177.963 26.4004C178.521 26.0597 179.155 25.8894 179.865 25.8894C180.572 25.8894 181.203 26.0597 181.758 26.4004C182.316 26.7384 182.755 27.2239 183.076 27.857C183.396 28.4874 183.556 29.2425 183.556 30.1224ZM182.331 30.1224C182.331 29.4518 182.223 28.8871 182.007 28.4284C181.793 27.967 181.499 27.6183 181.126 27.3822C180.755 27.1435 180.334 27.0241 179.865 27.0241C179.392 27.0241 178.971 27.1435 178.6 27.3822C178.229 27.6183 177.935 27.967 177.719 28.4284C177.505 28.8871 177.399 29.4518 177.399 30.1224C177.399 30.793 177.505 31.359 177.719 31.8204C177.935 32.2791 178.229 32.6278 178.6 32.8666C178.971 33.1026 179.392 33.2207 179.865 33.2207C180.334 33.2207 180.755 33.1026 181.126 32.8666C181.499 32.6278 181.793 32.2791 182.007 31.8204C182.223 31.359 182.331 30.793 182.331 30.1224Z" fill="white"/>
<path d="M184.703 34.2427V33.1643L184.943 33.1563C185.269 33.1483 185.525 33.0369 185.712 32.8223C185.902 32.6077 186.039 32.2617 186.125 31.7842C186.213 31.3067 186.271 30.6696 186.301 29.8729L186.441 26.0021H191.625V34.2427H190.404V27.0563H187.606L187.478 30.2029C187.443 31.0854 187.355 31.8271 187.213 32.428C187.072 33.0262 186.832 33.4782 186.493 33.784C186.157 34.0898 185.677 34.2427 185.056 34.2427H184.703Z" fill="white"/>
<path d="M200.775 30.1224C200.775 31.0023 200.615 31.7587 200.294 32.3918C199.974 33.0222 199.535 33.5077 198.977 33.8484C198.422 34.1864 197.791 34.3554 197.083 34.3554C196.373 34.3554 195.74 34.1864 195.182 33.8484C194.627 33.5077 194.189 33.0208 193.869 32.3878C193.548 31.7547 193.388 30.9996 193.388 30.1224C193.388 29.2425 193.548 28.4874 193.869 27.857C194.189 27.2239 194.627 26.7384 195.182 26.4004C195.74 26.0597 196.373 25.8894 197.083 25.8894C197.791 25.8894 198.422 26.0597 198.977 26.4004C199.535 26.7384 199.974 27.2239 200.294 27.857C200.615 28.4874 200.775 29.2425 200.775 30.1224ZM199.55 30.1224C199.55 29.4518 199.442 28.8871 199.225 28.4284C199.012 27.967 198.718 27.6183 198.345 27.3822C197.974 27.1435 197.553 27.0241 197.083 27.0241C196.611 27.0241 196.189 27.1435 195.818 27.3822C195.447 27.6183 195.154 27.967 194.938 28.4284C194.724 28.8871 194.617 29.4518 194.617 30.1224C194.617 30.793 194.724 31.359 194.938 31.8204C195.154 32.2791 195.447 32.6278 195.818 32.8666C196.189 33.1026 196.611 33.2207 197.083 33.2207C197.553 33.2207 197.974 33.1026 198.345 32.8666C198.718 32.6278 199.012 32.2791 199.225 31.8204C199.442 31.359 199.55 30.793 199.55 30.1224Z" fill="white"/>
<path d="M207.655 26.0021V27.0724H203.78V34.2427H202.543V26.0021H207.655Z" fill="white"/>
<path d="M209.275 26.0021H210.5V32.0538H210.576L214.748 26.0021H215.893V34.2427H214.655V28.199H214.579L210.416 34.2427H209.275V26.0021Z" fill="white"/>
<path d="M218.087 26.0021H219.308V28.7221C219.308 29.1004 219.373 29.3995 219.504 29.6194C219.635 29.8367 219.824 29.9909 220.073 30.0822C220.323 30.1734 220.628 30.219 220.985 30.219C221.175 30.219 221.367 30.2123 221.562 30.1988C221.759 30.1827 221.956 30.1613 222.15 30.1345C222.345 30.105 222.533 30.0714 222.715 30.0339C222.899 29.9936 223.07 29.9494 223.227 29.9011V30.9593C223.073 31.0103 222.908 31.0559 222.735 31.0961C222.564 31.1337 222.385 31.1672 222.198 31.1967C222.012 31.2236 221.817 31.245 221.614 31.2611C221.411 31.2772 221.202 31.2853 220.985 31.2853C220.387 31.2853 219.871 31.1994 219.436 31.0277C219.004 30.8534 218.67 30.5784 218.435 30.2029C218.203 29.8273 218.087 29.3337 218.087 28.7221V26.0021ZM223.043 26.0021H224.268V34.2427H223.043V26.0021Z" fill="white"/>
<path d="M226.394 34.2427V26.0021H231.535V27.0724H227.631V29.5832H231.267V30.6495H227.631V33.1724H231.583V34.2427H226.394Z" fill="white"/>
<path d="M240.223 28.6819H238.974C238.926 28.4136 238.836 28.1776 238.706 27.9737C238.575 27.7698 238.415 27.5968 238.225 27.4546C238.036 27.3125 237.823 27.2052 237.589 27.1327C237.356 27.0603 237.109 27.0241 236.848 27.0241C236.375 27.0241 235.952 27.1435 235.579 27.3822C235.208 27.621 234.914 27.971 234.698 28.4324C234.484 28.8938 234.378 29.4571 234.378 30.1224C234.378 30.793 234.484 31.359 234.698 31.8204C234.914 32.2818 235.209 32.6305 235.583 32.8666C235.956 33.1026 236.377 33.2207 236.844 33.2207C237.103 33.2207 237.348 33.1858 237.581 33.1161C237.815 33.0436 238.028 32.9377 238.217 32.7982C238.407 32.6587 238.567 32.4884 238.698 32.2872C238.831 32.0833 238.923 31.8499 238.974 31.587L240.223 31.5911C240.156 31.9961 240.027 32.369 239.834 32.7097C239.645 33.0477 239.401 33.34 239.102 33.5868C238.806 33.8309 238.467 34.0201 238.085 34.1542C237.703 34.2883 237.287 34.3554 236.836 34.3554C236.126 34.3554 235.493 34.1864 234.938 33.8484C234.383 33.5077 233.945 33.0208 233.625 32.3878C233.307 31.7547 233.149 30.9996 233.149 30.1224C233.149 29.2425 233.309 28.4874 233.629 27.857C233.949 27.2239 234.387 26.7384 234.942 26.4004C235.497 26.0597 236.129 25.8894 236.836 25.8894C237.271 25.8894 237.677 25.9524 238.053 26.0785C238.432 26.2019 238.772 26.3843 239.074 26.6258C239.375 26.8645 239.625 27.1569 239.822 27.5029C240.02 27.8463 240.153 28.2393 240.223 28.6819Z" fill="white"/>
<path d="M246.793 34.2427L244.038 30.5489H243.166V34.2427H241.929V26.0021H243.166V29.4826H243.57L246.669 26.0021H248.178L244.899 29.6918L248.302 34.2427H246.793Z" fill="white"/>
<path d="M249.674 26.0021H250.899V32.0538H250.975L255.147 26.0021H256.292V34.2427H255.054V28.199H254.978L250.815 34.2427H249.674V26.0021Z" fill="white"/>
<path d="M258.322 34.2427V26.0021H263.462V27.0724H259.559V29.5832H263.194V30.6495H259.559V33.1724H263.51V34.2427H258.322Z" fill="white"/>
<path d="M151.074 42.5714H149.825C149.777 42.3031 149.688 42.067 149.557 41.8632C149.426 41.6593 149.266 41.4863 149.076 41.3441C148.887 41.2019 148.675 41.0946 148.44 41.0222C148.208 40.9498 147.961 40.9136 147.699 40.9136C147.227 40.9136 146.804 41.0329 146.43 41.2717C146.059 41.5104 145.766 41.8605 145.549 42.3219C145.336 42.7833 145.229 43.3466 145.229 44.0119C145.229 44.6825 145.336 45.2485 145.549 45.7099C145.766 46.1713 146.06 46.52 146.434 46.7561C146.808 46.9921 147.228 47.1101 147.695 47.1101C147.954 47.1101 148.2 47.0753 148.432 47.0055C148.667 46.9331 148.879 46.8271 149.068 46.6876C149.258 46.5482 149.418 46.3778 149.549 46.1766C149.682 45.9728 149.774 45.7394 149.825 45.4765L151.074 45.4805C151.008 45.8856 150.878 46.2584 150.686 46.5991C150.496 46.9371 150.252 47.2295 149.953 47.4763C149.657 47.7204 149.318 47.9095 148.936 48.0437C148.555 48.1778 148.138 48.2448 147.687 48.2448C146.977 48.2448 146.345 48.0758 145.79 47.7378C145.234 47.3972 144.797 46.9103 144.476 46.2772C144.159 45.6442 144 44.889 144 44.0119C144 43.132 144.16 42.3769 144.48 41.7465C144.801 41.1134 145.238 40.6279 145.794 40.2899C146.349 39.9492 146.98 39.7789 147.687 39.7789C148.122 39.7789 148.528 39.8419 148.904 39.968C149.283 40.0914 149.624 40.2738 149.925 40.5152C150.227 40.754 150.476 41.0464 150.674 41.3924C150.871 41.7358 151.005 42.1287 151.074 42.5714Z" fill="white"/>
<path d="M152.78 39.8915H154.005V45.9433H154.081L158.253 39.8915H159.398V48.1322H158.161V42.0885H158.085L153.921 48.1322H152.78V39.8915Z" fill="white"/>
<path d="M168.238 42.5714H166.989C166.941 42.3031 166.851 42.067 166.721 41.8632C166.59 41.6593 166.43 41.4863 166.24 41.3441C166.051 41.2019 165.838 41.0946 165.604 41.0222C165.371 40.9498 165.125 40.9136 164.863 40.9136C164.391 40.9136 163.967 41.0329 163.594 41.2717C163.223 41.5104 162.929 41.8605 162.713 42.3219C162.5 42.7833 162.393 43.3466 162.393 44.0119C162.393 44.6825 162.5 45.2485 162.713 45.7099C162.929 46.1713 163.224 46.52 163.598 46.7561C163.971 46.9921 164.392 47.1101 164.859 47.1101C165.118 47.1101 165.363 47.0753 165.596 47.0055C165.83 46.9331 166.043 46.8271 166.232 46.6876C166.422 46.5482 166.582 46.3778 166.713 46.1766C166.846 45.9728 166.938 45.7394 166.989 45.4765L168.238 45.4805C168.171 45.8856 168.042 46.2584 167.85 46.5991C167.66 46.9371 167.416 47.2295 167.117 47.4763C166.821 47.7204 166.482 47.9095 166.1 48.0437C165.718 48.1778 165.302 48.2448 164.851 48.2448C164.141 48.2448 163.508 48.0758 162.953 47.7378C162.398 47.3972 161.96 46.9103 161.64 46.2772C161.322 45.6442 161.164 44.889 161.164 44.0119C161.164 43.132 161.324 42.3769 161.644 41.7465C161.964 41.1134 162.402 40.6279 162.957 40.2899C163.512 39.9492 164.144 39.7789 164.851 39.7789C165.286 39.7789 165.692 39.8419 166.068 39.968C166.447 40.0914 166.787 40.2738 167.089 40.5152C167.391 40.754 167.64 41.0464 167.838 41.3924C168.035 41.7358 168.169 42.1287 168.238 42.5714Z" fill="white"/>
<path d="M169.539 40.9619V39.8915H175.885V40.9619H173.327V48.1322H172.094V40.9619H169.539Z" fill="white"/>
<path d="M177.513 48.1322V39.8915H182.653V40.9619H178.75V43.4727H182.385V44.539H178.75V47.0619H182.701V48.1322H177.513Z" fill="white"/>
<path d="M184.531 39.8915H186.032L188.643 46.2973H188.739L191.349 39.8915H192.85V48.1322H191.673V42.169H191.597L189.179 48.1201H188.202L185.784 42.165H185.708V48.1322H184.531V39.8915Z" fill="white"/>
<path d="M195.743 43.2152H197.953C198.562 43.2152 199.08 43.3144 199.507 43.5129C199.934 43.7114 200.259 43.9917 200.483 44.3539C200.71 44.716 200.822 45.1425 200.82 45.6334C200.822 46.1243 200.71 46.5575 200.483 46.9331C200.259 47.3086 199.934 47.6024 199.507 47.8143C199.08 48.0262 198.562 48.1322 197.953 48.1322H194.883V39.8915H196.124V47.086H197.953C198.308 47.086 198.607 47.0163 198.85 46.8768C199.096 46.7373 199.281 46.5562 199.406 46.3336C199.535 46.1109 199.599 45.8722 199.599 45.6173C199.599 45.2471 199.457 44.9293 199.174 44.6637C198.891 44.3955 198.484 44.2613 197.953 44.2613H195.743V43.2152ZM202.817 39.8915V48.1322H201.576V39.8915H202.817Z" fill="white"/>
</svg>
