<svg width="20" height="20" viewBox="0 0 20 20" fill="none" xmlns="http://www.w3.org/2000/svg">
<rect width="20" height="20" rx="4" fill="white"/>
<path d="M9.30901 10.6912C8.60207 9.98436 8.06915 9.19288 7.71508 8.38992C7.64016 8.22014 7.68427 8.02137 7.81538 7.89026L8.31024 7.39604C8.71567 6.99063 8.71567 6.41726 8.3616 6.06321L7.65224 5.3539C7.18035 4.88203 6.41541 4.88203 5.94351 5.3539L5.54956 5.74783C5.10183 6.19553 4.91513 6.8414 5.03597 7.48183C5.33446 9.06056 6.25166 10.7891 7.7314 12.2688C9.21113 13.7484 10.9398 14.6656 12.5186 14.964C13.1591 15.0849 13.805 14.8982 14.2527 14.4505L14.6461 14.0572C15.118 13.5853 15.118 12.8204 14.6461 12.3485L13.9373 11.6398C13.5833 11.2858 13.0092 11.2858 12.6558 11.6398L12.1102 12.186C11.9791 12.3171 11.7803 12.3612 11.6105 12.2863C10.8075 11.9316 10.0159 11.3981 9.30901 10.6912Z" fill="black"/>
</svg>
