<svg width="26" height="26" viewBox="0 0 26 26" fill="none" xmlns="http://www.w3.org/2000/svg">
<path fill-rule="evenodd" clip-rule="evenodd" d="M24.7619 10.5618C24.2797 8.13694 23.0893 5.90948 21.3411 4.16111C20.1803 3.0001 18.8021 2.07912 17.2853 1.45078C15.7685 0.82243 14.1428 0.499023 12.501 0.499023C10.8592 0.499023 9.23345 0.82243 7.71665 1.45078C6.19984 2.07912 4.82166 3.0001 3.66082 4.16111C1.91271 5.90948 0.722283 8.13694 0.240076 10.5618C-0.24213 12.9867 0.00553637 15.5002 0.951759 17.7843C1.89798 20.0685 3.50026 22.0208 5.556 23.3943C7.61174 24.7679 10.0286 25.501 12.501 25.501C14.9734 25.501 17.3902 24.7679 19.446 23.3943C21.5017 22.0208 23.104 20.0685 24.0502 17.7843C24.9964 15.5002 25.2441 12.9867 24.7619 10.5618ZM12.5016 5.67173L12.5007 5.67173C12.218 5.67191 11.9451 5.77464 11.7325 5.96085C11.5199 6.14703 11.3821 6.40402 11.3446 6.68412L11.3446 6.68423L11.1498 8.1395L11.1498 8.13984C11.0312 9.02909 10.6233 9.85459 9.9889 10.4889C9.35455 11.1233 8.52904 11.5312 7.6398 11.6498L7.63946 11.6499L6.18419 11.8446L6.18408 11.8446C5.90398 11.8821 5.64699 12.0199 5.46081 12.2325C5.2746 12.4451 5.17187 12.7181 5.17169 13.0007V13.0017C5.17187 13.2843 5.2746 13.5573 5.46081 13.7699C5.64699 13.9825 5.90398 14.1203 6.18408 14.1578L6.18419 14.1578L7.63946 14.3525L7.6398 14.3526C8.52904 14.4711 9.35455 14.8791 9.9889 15.5134C10.6233 16.1478 11.0312 16.9733 11.1498 17.8625L11.1498 17.8629L11.3446 19.3181L11.3446 19.3183C11.3821 19.5984 11.5199 19.8553 11.7325 20.0415C11.9451 20.2277 12.218 20.3305 12.5007 20.3307H12.5016C12.7843 20.3305 13.0572 20.2277 13.2698 20.0415C13.4824 19.8553 13.6202 19.5984 13.6577 19.3183L13.6577 19.3181L13.8525 17.8629L13.8525 17.8625C13.9711 16.9733 14.379 16.1478 15.0134 15.5134C15.6477 14.8791 16.4733 14.4711 17.3625 14.3526L17.3628 14.3525L18.8181 14.1578L18.8182 14.1578C19.0983 14.1203 19.3553 13.9825 19.5415 13.7699C19.7277 13.5573 19.8304 13.2843 19.8306 13.0017V13.0007C19.8304 12.7181 19.7277 12.4451 19.5415 12.2325C19.3553 12.0199 19.0983 11.8821 18.8182 11.8446L18.8181 11.8446L17.3628 11.6499L17.3625 11.6498C16.4733 11.5312 15.6477 11.1233 15.0134 10.4889C14.379 9.85459 13.9711 9.02909 13.8525 8.13984L13.8525 8.1395L13.6577 6.68423L13.6577 6.68412C13.6202 6.40402 13.4824 6.14703 13.2698 5.96085C13.0572 5.77464 12.7843 5.67191 12.5016 5.67173ZM11.0496 11.5496C11.7513 10.8479 12.2503 9.97513 12.5011 9.02354C12.752 9.97513 13.251 10.8479 13.9527 11.5496C14.6544 12.2513 15.5272 12.7504 16.4788 13.0012C15.5272 13.252 14.6544 13.7511 13.9527 14.4528C13.251 15.1545 12.752 16.0272 12.5011 16.9788C12.2503 16.0272 11.7513 15.1545 11.0496 14.4528C10.3479 13.7511 9.47509 13.252 8.5235 13.0012C9.47509 12.7504 10.3479 12.2513 11.0496 11.5496Z" fill="white"/>
</svg>
