<svg width="20" height="20" viewBox="0 0 20 20" fill="none" xmlns="http://www.w3.org/2000/svg">
<path d="M13.3325 8.33341H14.9992C14.9982 7.44965 14.6468 6.60234 14.0219 5.97741C13.397 5.3525 12.5496 5.00101 11.6659 5.00008V6.66675C12.1077 6.66726 12.5314 6.84301 12.8438 7.15546C13.1562 7.46791 13.332 7.89154 13.3325 8.33341ZM16.6659 8.33341H18.3325C18.3305 6.56593 17.6275 4.87141 16.3776 3.62161C15.1279 2.37181 13.4333 1.66877 11.6659 1.66675V3.33341C12.9915 3.33487 14.2624 3.86212 15.1998 4.79949C16.1371 5.73686 16.6644 7.00778 16.6659 8.33341ZM12.0626 14.2697C10.6557 13.6587 9.37229 12.7959 8.27542 11.7238C7.20334 10.6269 6.34057 9.3435 5.72959 7.93666L7.71717 5.94908L5.64217 1.79908L4.3055 2.22666C3.42688 2.49828 2.68047 3.08656 2.21106 3.87738C1.74165 4.66821 1.58272 5.6052 1.76509 6.50658C2.3954 9.37708 3.83698 12.0061 5.91834 14.0809C7.99317 16.1622 10.6222 17.6038 13.4927 18.2342C14.394 18.4165 15.331 18.2576 16.1219 17.7882C16.9126 17.3187 17.5009 16.5722 17.7725 15.6937L18.2001 14.357L14.0501 12.282L12.0626 14.2697Z" fill="white"/>
</svg>
