<svg width="19" height="18" viewBox="0 0 19 18" fill="none" xmlns="http://www.w3.org/2000/svg">
<path fill-rule="evenodd" clip-rule="evenodd" d="M7.31025 16.963C7.07525 16.782 6.77725 16.702 6.48225 16.741L5.12825 16.92C4.68125 16.979 4.24925 16.73 4.07725 16.313L3.53625 15.005C3.43525 14.76 3.24125 14.566 2.99625 14.465L1.68825 13.924C1.27125 13.751 1.02225 13.32 1.08125 12.873L1.26625 11.467C1.30125 11.205 1.23025 10.94 1.06925 10.73L0.20625 9.60601C-0.06875 9.24901 -0.06875 8.75101 0.20625 8.39301L1.06925 7.26901C1.22925 7.06001 1.30025 6.79501 1.26625 6.53301L1.08125 5.12701C1.02225 4.68001 1.27125 4.24901 1.68825 4.07601L2.99625 3.53601C3.24025 3.43401 3.43425 3.24001 3.53625 2.99601L4.07625 1.68801C4.24925 1.27101 4.68025 1.02201 5.12725 1.08101L6.53325 1.26601C6.79525 1.30001 7.06025 1.22901 7.27025 1.06901L8.39425 0.206006C8.75125 -0.0689941 9.24925 -0.0689941 9.60725 0.206006L10.7312 1.06901C10.9402 1.22901 11.2052 1.30001 11.4672 1.26401L12.8733 1.07901C13.3202 1.02001 13.7522 1.26901 13.9242 1.68601L14.4653 2.99401C14.5662 3.23901 14.7602 3.43301 15.0052 3.53401L16.3132 4.07501C16.7302 4.24801 16.9792 4.67901 16.9202 5.12601L16.7353 6.53201C16.7003 6.79401 16.7712 7.05901 16.9322 7.26901L17.7952 8.39301C18.0702 8.75001 18.0702 9.24801 17.7952 9.60601L16.9643 10.689C16.7833 10.924 16.7033 11.222 16.7423 11.517L16.9202 12.872C16.9792 13.319 16.7302 13.751 16.3132 13.923L15.0052 14.464C14.7602 14.565 14.5662 14.759 14.4653 15.004L13.9242 16.312C13.7512 16.729 13.3202 16.978 12.8733 16.919L11.4672 16.734C11.2052 16.699 10.9402 16.77 10.7302 16.931L9.60625 17.794C9.24925 18.069 8.75125 18.069 8.39325 17.794L7.31025 16.963ZM11.6288 7.43023C11.9217 7.13734 11.9217 6.66247 11.6288 6.36957C11.3359 6.07668 10.861 6.07668 10.5681 6.36957L6.36811 10.5696C6.07521 10.8625 6.07521 11.3373 6.36811 11.6302C6.661 11.9231 7.13587 11.9231 7.42877 11.6302L11.6288 7.43023ZM11.7063 10.2937C12.0979 10.6854 12.0979 11.3187 11.7063 11.7063C11.3146 12.0979 10.6813 12.0979 10.2937 11.7063C9.90208 11.3146 9.90208 10.6813 10.2937 10.2937C10.6813 9.90208 11.3146 9.90208 11.7063 10.2937ZM7.70602 7.70602C8.09799 7.31822 8.09799 6.68439 7.70602 6.29242C7.31822 5.90044 6.68439 5.90461 6.29242 6.29242C5.90044 6.68022 5.90461 7.31405 6.29242 7.70602C6.68022 8.09799 7.31405 8.09799 7.70602 7.70602Z" fill="white"/>
</svg>
