<svg width="1112" height="109" viewBox="0 0 1112 109" fill="none" xmlns="http://www.w3.org/2000/svg">
<path d="M0.375 22.1676V2.18182H86.4332V22.1676H55.5597V104H31.2983V22.1676H0.375ZM210.904 53.0909C210.904 64.2936 208.75 73.7893 204.441 81.5781C200.133 89.367 194.299 95.2831 186.941 99.3267C179.617 103.37 171.397 105.392 162.282 105.392C153.135 105.392 144.898 103.354 137.574 99.277C130.249 95.2003 124.432 89.2841 120.123 81.5284C115.848 73.7396 113.71 64.2604 113.71 53.0909C113.71 41.8883 115.848 32.3925 120.123 24.6037C124.432 16.8149 130.249 10.8987 137.574 6.85511C144.898 2.81155 153.135 0.789769 162.282 0.789769C171.397 0.789769 179.617 2.81155 186.941 6.85511C194.299 10.8987 200.133 16.8149 204.441 24.6037C208.75 32.3925 210.904 41.8883 210.904 53.0909ZM185.748 53.0909C185.748 46.4621 184.804 40.8608 182.914 36.2869C181.058 31.7131 178.374 28.2495 174.86 25.8963C171.38 23.5431 167.188 22.3665 162.282 22.3665C157.41 22.3665 153.217 23.5431 149.704 25.8963C146.191 28.2495 143.49 31.7131 141.6 36.2869C139.744 40.8608 138.816 46.4621 138.816 53.0909C138.816 59.7197 139.744 65.321 141.6 69.8949C143.49 74.4687 146.191 77.9323 149.704 80.2855C153.217 82.6387 157.41 83.8153 162.282 83.8153C167.188 83.8153 171.38 82.6387 174.86 80.2855C178.374 77.9323 181.058 74.4687 182.914 69.8949C184.804 65.321 185.748 59.7197 185.748 53.0909ZM246.272 2.18182H276.748L302.6 65.2216H303.794L329.646 2.18182H360.122V104H336.159V41.4574H335.314L310.853 103.354H295.541L271.081 41.1094H270.235V104H246.272V2.18182ZM492.572 53.0909C492.572 64.2936 490.418 73.7893 486.109 81.5781C481.801 89.367 475.967 95.2831 468.609 99.3267C461.285 103.37 453.065 105.392 443.95 105.392C434.803 105.392 426.566 103.354 419.241 99.277C411.917 95.2003 406.1 89.2841 401.791 81.5284C397.516 73.7396 395.378 64.2604 395.378 53.0909C395.378 41.8883 397.516 32.3925 401.791 24.6037C406.1 16.8149 411.917 10.8987 419.241 6.85511C426.566 2.81155 434.803 0.789769 443.95 0.789769C453.065 0.789769 461.285 2.81155 468.609 6.85511C475.967 10.8987 481.801 16.8149 486.109 24.6037C490.418 32.3925 492.572 41.8883 492.572 53.0909ZM467.416 53.0909C467.416 46.4621 466.472 40.8608 464.582 36.2869C462.726 31.7131 460.042 28.2495 456.528 25.8963C453.048 23.5431 448.856 22.3665 443.95 22.3665C439.078 22.3665 434.885 23.5431 431.372 25.8963C427.859 28.2495 425.158 31.7131 423.268 36.2869C421.412 40.8608 420.484 46.4621 420.484 53.0909C420.484 59.7197 421.412 65.321 423.268 69.8949C425.158 74.4687 427.859 77.9323 431.372 80.2855C434.885 82.6387 439.078 83.8153 443.95 83.8153C448.856 83.8153 453.048 82.6387 456.528 80.2855C460.042 77.9323 462.726 74.4687 464.582 69.8949C466.472 65.321 467.416 59.7197 467.416 53.0909ZM597.493 2.18182V22.1676H552.55V104H527.94V2.18182H597.493ZM630.561 104V2.18182H672.621C680.244 2.18182 686.823 3.67329 692.358 6.65625C697.926 9.60606 702.219 13.7325 705.235 19.0355C708.251 24.3054 709.759 30.437 709.759 37.4304C709.759 44.4569 708.218 50.6051 705.135 55.875C702.086 61.1117 697.728 65.1719 692.06 68.0554C686.392 70.9389 679.664 72.3807 671.875 72.3807H645.924V52.9915H667.301C671.014 52.9915 674.113 52.3452 676.598 51.0526C679.117 49.7599 681.023 47.9536 682.316 45.6335C683.608 43.2803 684.255 40.5459 684.255 37.4304C684.255 34.2817 683.608 31.5639 682.316 29.277C681.023 26.9569 679.117 25.1671 676.598 23.9077C674.079 22.6482 670.98 22.0185 667.301 22.0185H655.171V104H630.561ZM752.609 104H726.16L760.514 2.18182H793.277L827.63 104H801.181L777.268 27.8352H776.473L752.609 104ZM749.079 63.929H804.363V82.6222H749.079V63.929ZM896.817 12.7216H921.825C930.177 12.7216 937.585 14.4616 944.048 17.9418C950.511 21.3887 955.582 26.2775 959.261 32.608C962.94 38.9053 964.779 46.3627 964.779 54.9801C964.779 63.1998 962.94 70.3423 959.261 76.4077C955.582 82.473 950.511 87.1794 944.048 90.527C937.585 93.8414 930.177 95.4986 921.825 95.4986H896.817C888.399 95.4986 880.942 93.858 874.445 90.5767C867.982 87.2623 862.911 82.5559 859.232 76.4574C855.553 70.3589 853.714 63.1501 853.714 54.831C853.714 46.2467 855.57 38.8059 859.282 32.5085C863.027 26.2112 868.148 21.339 874.644 17.892C881.14 14.4451 888.531 12.7216 896.817 12.7216ZM896.817 33.0554C892.906 33.0554 889.393 33.8177 886.278 35.3423C883.162 36.8338 880.71 39.187 878.92 42.402C877.13 45.6169 876.235 49.7599 876.235 54.831C876.235 59.5705 877.147 63.4484 878.969 66.4645C880.826 69.4474 883.311 71.6515 886.427 73.0767C889.542 74.4687 893.006 75.1648 896.817 75.1648H921.974C925.852 75.1648 929.299 74.4356 932.315 72.9773C935.364 71.5189 937.75 69.2983 939.474 66.3153C941.23 63.3324 942.109 59.554 942.109 54.9801C942.109 49.9091 941.23 45.7661 939.474 42.5511C937.75 39.303 935.364 36.9167 932.315 35.392C929.299 33.8343 925.852 33.0554 921.974 33.0554H896.817ZM920.83 0.392046V108.176H897.712V0.392046H920.83ZM1015.94 38.0767H1038.61C1046.93 38.0767 1054.16 39.419 1060.29 42.1037C1066.42 44.7884 1071.16 48.5668 1074.51 53.4389C1077.89 58.3111 1079.58 64.045 1079.58 70.6406C1079.58 77.2363 1077.89 83.0365 1074.51 88.0412C1071.16 93.0459 1066.42 96.9569 1060.29 99.7741C1054.16 102.591 1046.93 104 1038.61 104H1000.58V2.18182H1025.14V84.5114H1038.61C1042.19 84.5114 1045.21 83.8982 1047.66 82.6719C1050.15 81.4124 1052.02 79.7221 1053.28 77.6009C1054.57 75.4465 1055.2 73.0601 1055.17 70.4418C1055.2 66.6634 1053.79 63.5147 1050.94 60.9957C1048.09 58.4437 1043.98 57.1676 1038.61 57.1676H1015.94V38.0767ZM1111.85 2.18182V104H1087.29V2.18182H1111.85Z" fill="#1F1F1F" fill-opacity="0.03"/>
</svg>
