<svg xmlns="http://www.w3.org/2000/svg" width="522.82" height="337.7" viewBox="0 0 522.82 337.7">
	<style type="text/css">
		.st0{fill:#f7f8ff;}
	</style>
	<path class="st0" d="M94.85,336.8C94.85,336.8 40.11,347.55 35.23,294.77C30.34,241.99 110.49,252.74 84.1,199.97C57.71,147.19 -1.9,163.8 0.04,78.77C2,-6.25 98.76,-1.36 114.39,30.88C130.03,63.13 184.77,78.77 231.68,56.29C278.59,33.81 346.03,-11.14 399.79,2.54C453.54,16.22 470.16,40.65 467.23,80.73C464.29,120.8 448.66,164.78 483.84,193.12C519.03,221.47 550.3,286.95 483.84,324.09C483.84,324.09 462.34,336.65 448.66,337.7Z"/>
</svg>