<svg width="24" height="30" viewBox="0 0 24 30" fill="none" xmlns="http://www.w3.org/2000/svg">
<path fill-rule="evenodd" clip-rule="evenodd" d="M4.68678 0H14.7168L23.2175 8.86058V26.0945C23.2175 28.2534 21.4709 30 19.3194 30H4.68678C2.52787 30 0.78125 28.2534 0.78125 26.0945V3.90553C0.781212 1.74662 2.52783 0 4.68678 0Z" fill="#E5252A"/>
<path opacity="0.302" fill-rule="evenodd" clip-rule="evenodd" d="M14.709 0V8.79311H23.2172L14.709 0Z" fill="white"/>
<path d="M5.12109 22.3838V16.9041H7.45244C8.02965 16.9041 8.48694 17.0615 8.83176 17.3838C9.17658 17.6987 9.34901 18.126 9.34901 18.6582C9.34901 19.1904 9.17658 19.6177 8.83176 19.9325C8.48694 20.2549 8.02965 20.4123 7.45244 20.4123H6.52289V22.3838H5.12109ZM6.52289 19.2204H7.29502C7.5049 19.2204 7.66982 19.1754 7.78228 19.0705C7.89471 18.9731 7.95471 18.8381 7.95471 18.6582C7.95471 18.4783 7.89475 18.3434 7.78228 18.2459C7.66986 18.141 7.50493 18.096 7.29502 18.096H6.52289V19.2204ZM9.92619 22.3838V16.9041H11.8677C12.25 16.9041 12.6099 16.9565 12.9472 17.069C13.2845 17.1814 13.5919 17.3389 13.8617 17.5562C14.1316 17.7661 14.349 18.051 14.5064 18.4108C14.6563 18.7706 14.7388 19.1829 14.7388 19.6477C14.7388 20.105 14.6563 20.5173 14.5064 20.8771C14.349 21.2369 14.1316 21.5217 13.8617 21.7316C13.5918 21.949 13.2845 22.1064 12.9472 22.2189C12.6099 22.3313 12.25 22.3838 11.8677 22.3838H9.92619ZM11.298 21.1919H11.7028C11.9202 21.1919 12.1226 21.1695 12.31 21.117C12.4899 21.0645 12.6623 20.982 12.8272 20.8696C12.9847 20.7572 13.1121 20.5997 13.202 20.3898C13.292 20.1799 13.337 19.9325 13.337 19.6477C13.337 19.3553 13.292 19.108 13.202 18.8981C13.1121 18.6882 12.9847 18.5308 12.8272 18.4183C12.6623 18.3059 12.4899 18.2234 12.31 18.1709C12.1226 18.1185 11.9202 18.096 11.7028 18.096H11.298V21.1919ZM15.4434 22.3838V16.9041H19.3415V18.096H16.8452V18.973H18.8392V20.1574H16.8452V22.3838H15.4434Z" fill="white"/>
</svg>
