<svg width="16" height="20" viewBox="0 0 16 20" fill="none" xmlns="http://www.w3.org/2000/svg">
<path fill-rule="evenodd" clip-rule="evenodd" d="M3.12517 0H9.81183L15.479 5.90705V17.3963C15.479 18.8356 14.3146 20 12.8803 20H3.12517C1.6859 20 0.521484 18.8356 0.521484 17.3963V2.60369C0.521459 1.16441 1.68587 0 3.12517 0Z" fill="#E5252A"/>
<path opacity="0.302" fill-rule="evenodd" clip-rule="evenodd" d="M9.80664 0V5.86207H15.4788L9.80664 0Z" fill="white"/>
<path d="M3.41406 14.9226V11.2694H4.96829C5.3531 11.2694 5.65796 11.3744 5.88784 11.5893C6.11772 11.7991 6.23267 12.084 6.23267 12.4388C6.23267 12.7936 6.11772 13.0785 5.88784 13.2884C5.65796 13.5033 5.3531 13.6082 4.96829 13.6082H4.3486V14.9226H3.41406ZM4.3486 12.8137H4.86334C5.00326 12.8137 5.11321 12.7837 5.18819 12.7137C5.26314 12.6487 5.30314 12.5588 5.30314 12.4389C5.30314 12.3189 5.26317 12.229 5.18819 12.164C5.11324 12.094 5.00329 12.064 4.86334 12.064H4.3486V12.8137ZM6.61746 14.9226V11.2694H7.91181C8.16668 11.2694 8.40657 11.3044 8.63145 11.3794C8.85632 11.4543 9.06124 11.5593 9.24114 11.7042C9.42106 11.8441 9.56598 12.034 9.67093 12.2739C9.77087 12.5138 9.82586 12.7887 9.82586 13.0985C9.82586 13.4034 9.77089 13.6782 9.67093 13.9181C9.56598 14.158 9.42106 14.3479 9.24114 14.4878C9.06121 14.6327 8.85632 14.7377 8.63145 14.8126C8.40657 14.8876 8.16668 14.9226 7.91181 14.9226H6.61746ZM7.532 14.128H7.80186C7.94678 14.128 8.08172 14.113 8.20666 14.078C8.32659 14.043 8.44154 13.9881 8.55149 13.9131C8.65644 13.8381 8.7414 13.7332 8.80136 13.5933C8.86133 13.4533 8.89132 13.2884 8.89132 13.0985C8.89132 12.9036 8.86133 12.7387 8.80136 12.5988C8.7414 12.4588 8.65644 12.3539 8.55149 12.2789C8.44154 12.204 8.32662 12.149 8.20666 12.114C8.08172 12.079 7.94678 12.064 7.80186 12.064H7.532V14.128ZM10.2956 14.9226V11.2694H12.8943V12.064H11.2302V12.6487H12.5595V13.4383H11.2302V14.9226H10.2956Z" fill="white"/>
</svg>
