<svg width="15" height="13" viewBox="0 0 15 13" fill="none" xmlns="http://www.w3.org/2000/svg">
<path d="M1 5.75C0.585786 5.75 0.25 6.08579 0.25 6.5C0.25 6.91421 0.585786 7.25 1 7.25V5.75ZM1 7.25H15V5.75H1V7.25Z" fill="white"/>
<path d="M0.46967 5.96967C0.176777 6.26256 0.176777 6.73744 0.46967 7.03033C0.762563 7.32322 1.23744 7.32322 1.53033 7.03033L0.46967 5.96967ZM5.46967 0.96967L0.46967 5.96967L1.53033 7.03033L6.53033 2.03033L5.46967 0.96967Z" fill="white"/>
<path d="M1.53033 5.96967C1.23744 5.67678 0.762563 5.67678 0.46967 5.96967C0.176777 6.26256 0.176777 6.73744 0.46967 7.03033L1.53033 5.96967ZM6.53033 10.9697L1.53033 5.96967L0.46967 7.03033L5.46967 12.0303L6.53033 10.9697Z" fill="white"/>
</svg>
