<svg width="137" height="20" viewBox="0 0 137 20" fill="none" xmlns="http://www.w3.org/2000/svg">
<path d="M24.8482 19.2593C24.8897 19.2593 24.9105 19.321 24.9105 19.4444C24.9105 19.5679 24.8897 19.6296 24.8482 19.6296C24.1631 19.6296 23.613 19.6193 23.1979 19.5988L20.9559 19.5679L18.7763 19.5988C18.4026 19.6193 17.8733 19.6296 17.1882 19.6296C17.1467 19.6296 17.1259 19.5679 17.1259 19.4444C17.1259 19.321 17.1467 19.2593 17.1882 19.2593C18.1016 19.2593 18.714 19.1564 19.0254 18.9506C19.3367 18.7449 19.4924 18.3128 19.4924 17.6543L19.4613 17.1296L18.8385 4.04321L12.2061 19.4136C12.1646 19.4959 12.0816 19.537 11.957 19.537C11.8532 19.537 11.7598 19.4959 11.6768 19.4136L3.89226 4.16667L3.61202 15.8951C3.59126 16.9856 3.79884 17.8189 4.23478 18.3951C4.69147 18.9712 5.36613 19.2593 6.25875 19.2593C6.32103 19.2593 6.35217 19.321 6.35217 19.4444C6.35217 19.5679 6.32103 19.6296 6.25875 19.6296C5.69827 19.6296 5.26233 19.6193 4.95095 19.5988L3.23836 19.5679L1.40121 19.5988C1.08983 19.6193 0.653899 19.6296 0.0934143 19.6296C0.0311381 19.6296 0 19.5679 0 19.4444C0 19.321 0.0311381 19.2593 0.0934143 19.2593C0.944521 19.2593 1.59842 18.9712 2.05511 18.3951C2.53256 17.8189 2.78167 16.9856 2.80243 15.8951L3.08267 2.62346C2.70901 1.96502 2.29384 1.48148 1.83715 1.17284C1.40121 0.864197 0.892625 0.709876 0.311381 0.709876C0.249105 0.709876 0.217966 0.648148 0.217966 0.524692C0.217966 0.401236 0.249105 0.339507 0.311381 0.339507L1.65032 0.370371C1.92018 0.390946 2.27308 0.401235 2.70901 0.401235L4.1725 0.370371C4.33857 0.349795 4.54616 0.339507 4.79526 0.339507C5.06513 0.339507 5.28309 0.442387 5.44916 0.648148C5.61523 0.833334 5.87472 1.26543 6.22761 1.94445L13.078 15.1852L19.2745 1.11111C19.399 0.823045 19.534 0.627573 19.6793 0.524692C19.8246 0.401236 20.001 0.339507 20.2086 0.339507C20.3539 0.339507 20.5407 0.349795 20.7691 0.370371C20.9974 0.390946 21.2777 0.401235 21.6098 0.401235L23.2913 0.370371C23.5611 0.349795 23.9659 0.339507 24.5057 0.339507C24.5472 0.339507 24.5679 0.401236 24.5679 0.524692C24.5679 0.648148 24.5472 0.709876 24.5057 0.709876C23.5092 0.709876 22.7827 0.895062 22.326 1.26543C21.8901 1.61523 21.6929 2.20165 21.7344 3.02469L22.4505 17.1296C22.4921 17.7675 22.5647 18.2305 22.6685 18.5185C22.7931 18.8066 23.011 19.0021 23.3224 19.1049C23.6338 19.2078 24.1424 19.2593 24.8482 19.2593Z" fill="white"/>
<path d="M32.06 17.0062C32.06 17.6646 32.1327 18.1481 32.278 18.4568C32.4441 18.7449 32.7451 18.9506 33.181 19.0741C33.6377 19.1975 34.3435 19.2593 35.2984 19.2593C35.3607 19.2593 35.3918 19.321 35.3918 19.4444C35.3918 19.5679 35.3607 19.6296 35.2984 19.6296C34.4473 19.6296 33.783 19.6193 33.3056 19.5988L30.5966 19.5679L28.3546 19.5988C27.9602 19.6193 27.4205 19.6296 26.7354 19.6296C26.6732 19.6296 26.642 19.5679 26.642 19.4444C26.642 19.321 26.6732 19.2593 26.7354 19.2593C27.4412 19.2593 27.9498 19.2078 28.2612 19.1049C28.5726 19.0021 28.7802 18.8066 28.884 18.5185C29.0085 18.2305 29.0708 17.7675 29.0708 17.1296V2.83951C29.0708 2.22222 29.0085 1.76955 28.884 1.48148C28.7802 1.19342 28.5622 0.997942 28.2301 0.895061C27.9187 0.771605 27.4205 0.709876 26.7354 0.709876C26.6732 0.709876 26.642 0.648148 26.642 0.524692C26.642 0.401236 26.6732 0.339507 26.7354 0.339507L28.3546 0.370371C29.268 0.411522 30.0049 0.432098 30.5654 0.432098C31.0429 0.432098 31.6241 0.401235 32.3092 0.339507C32.5583 0.31893 32.8904 0.298354 33.3056 0.277778C33.7415 0.257202 34.2501 0.246914 34.8313 0.246914C36.8864 0.246914 38.5056 0.679013 39.6889 1.54321C40.8929 2.40741 41.4949 3.73457 41.4949 5.52469C41.4949 6.82099 41.1524 7.92181 40.4673 8.82716C39.803 9.73251 38.9416 10.4115 37.8829 10.8642C36.8449 11.3169 35.7759 11.5432 34.6756 11.5432C34.0944 11.5432 33.6066 11.4918 33.2122 11.3889C33.1499 11.3889 33.1187 11.3374 33.1187 11.2346C33.1187 11.1728 33.1291 11.1111 33.1499 11.0494C33.1914 10.9877 33.2329 10.9671 33.2744 10.9877C33.6066 11.07 33.9698 11.1111 34.3643 11.1111C35.4437 11.1111 36.3571 10.6687 37.1044 9.78395C37.8517 8.89918 38.2254 7.63374 38.2254 5.98765C38.2254 4.36214 37.8413 3.107 37.0733 2.22222C36.3052 1.31687 35.2465 0.864197 33.8972 0.864197C33.399 0.864197 33.0149 0.915638 32.7451 1.01852C32.496 1.1214 32.3195 1.31687 32.2157 1.60494C32.1119 1.87243 32.06 2.30453 32.06 2.90123V17.0062Z" fill="white"/>
<path d="M55.75 0C56.6842 0 57.6495 0.0823049 58.6459 0.246914C59.6631 0.411524 60.4623 0.637861 61.0435 0.925927C61.2303 0.987654 61.3445 1.06996 61.386 1.17284C61.4483 1.25514 61.4898 1.40946 61.5106 1.6358L61.8842 5.64815C61.8842 5.70988 61.8323 5.75103 61.7285 5.77161C61.6247 5.79218 61.5625 5.76132 61.5417 5.67901C60.9397 4.07407 60.0263 2.84979 58.8016 2.00617C57.5976 1.16255 56.1756 0.74074 54.5356 0.74074C52.3767 0.74074 50.6849 1.49177 49.4601 2.99383C48.2354 4.49588 47.623 6.51235 47.623 9.04321C47.623 10.9362 47.9551 12.6749 48.6194 14.2593C49.3045 15.8436 50.2386 17.0988 51.4218 18.0247C52.6259 18.9506 53.9648 19.4136 55.4387 19.4136C58.2411 19.4136 60.3688 17.6852 61.822 14.2284C61.8427 14.1461 61.905 14.1152 62.0088 14.1358C62.1333 14.1564 62.1956 14.1975 62.1956 14.2593L61.7285 18.2099C61.687 18.4568 61.6351 18.6214 61.5728 18.7037C61.5313 18.7654 61.4172 18.8374 61.2303 18.9198C59.4243 19.6399 57.5041 20 55.4698 20C52.9372 20 50.8302 19.5062 49.1488 18.5185C47.4673 17.5103 46.2218 16.2346 45.4122 14.6914C44.6234 13.1481 44.229 11.5432 44.229 9.87654C44.229 7.94239 44.7583 6.22428 45.817 4.72222C46.8964 3.22016 48.3184 2.05761 50.0829 1.23457C51.8474 0.411522 53.7364 0 55.75 0Z" fill="white"/>
<path d="M70.526 0.0621688H71.3587L72.8065 3.59691H72.8598L74.3076 0.0621688H75.1403V4.60937H74.4875V1.31887H74.4453L73.1041 4.60271H72.5622L71.221 1.31665H71.1788V4.60937H70.526V0.0621688Z" fill="white"/>
<path d="M76.263 4.60937V0.0621688H79.1143V0.652772H76.9492V2.03825H78.9655V2.62663H76.9492V4.01877H79.1409V4.60937H76.263Z" fill="white"/>
<path d="M79.8117 5.70842V4.02765H80.1115C80.2136 3.94179 80.3091 3.81968 80.3979 3.6613C80.4867 3.50291 80.5622 3.28902 80.6244 3.01962C80.6866 2.75023 80.7295 2.4046 80.7532 1.98274L80.8598 0.0621688H83.6644V4.02765H84.1796V5.70176H83.5223V4.60937H80.469V5.70842H79.8117ZM80.9198 4.02765H83.0071V0.652772H81.4816L81.4105 1.98274C81.3913 2.30394 81.3594 2.59258 81.315 2.84866C81.2721 3.10474 81.2166 3.33121 81.1485 3.52808C81.0819 3.72346 81.0056 3.88999 80.9198 4.02765Z" fill="white"/>
<path d="M85.0563 0.0621688H85.7358V3.40152H85.778L88.0919 0.0621688H88.727V4.60937H88.0408V1.27446H87.9986L85.6892 4.60937H85.0563V0.0621688Z" fill="white"/>
<path d="M93.8878 4.00322L93.8278 5.684H93.1439V4.60937H92.8241V4.00322H93.8878ZM89.853 4.60937V0.0621688H90.5102V4.01432H92.7042V0.0621688H93.3637V4.60937H89.853Z" fill="white"/>
<path d="M94.7656 0.0621688H95.4451V3.40152H95.4873L97.8012 0.0621688H98.4363V4.60937H97.7501V1.27446H97.7079L95.3985 4.60937H94.7656V0.0621688Z" fill="white"/>
<path d="M99.5622 4.60937V0.0621688H100.248V2.03825H102.516V0.0621688H103.204V4.60937H102.516V2.62663H100.248V4.60937H99.5622Z" fill="white"/>
<path d="M108.106 1.5409H107.413C107.386 1.39288 107.337 1.26262 107.264 1.15012C107.191 1.03763 107.103 0.942153 106.998 0.863702C106.892 0.785251 106.775 0.726042 106.644 0.686077C106.516 0.646111 106.379 0.626128 106.234 0.626128C105.972 0.626128 105.737 0.691997 105.53 0.823736C105.324 0.955475 105.161 1.14864 105.041 1.40324C104.923 1.65783 104.864 1.96868 104.864 2.33577C104.864 2.70582 104.923 3.01814 105.041 3.27274C105.161 3.52734 105.325 3.71976 105.532 3.85002C105.739 3.98028 105.972 4.04541 106.231 4.04541C106.375 4.04541 106.511 4.02617 106.64 3.98768C106.77 3.94772 106.888 3.88925 106.993 3.81228C107.098 3.73531 107.187 3.64131 107.26 3.5303C107.334 3.4178 107.385 3.28902 107.413 3.14396L108.106 3.14618C108.069 3.36969 107.997 3.57544 107.89 3.76343C107.785 3.94994 107.65 4.11128 107.484 4.24746C107.319 4.38216 107.131 4.48651 106.92 4.56052C106.708 4.63453 106.477 4.67154 106.227 4.67154C105.833 4.67154 105.482 4.57828 105.174 4.39178C104.866 4.20379 104.624 3.93513 104.446 3.58581C104.27 3.23648 104.182 2.8198 104.182 2.33577C104.182 1.85026 104.271 1.43358 104.448 1.08573C104.626 0.736404 104.869 0.468486 105.177 0.28198C105.485 0.0939933 105.835 0 106.227 0C106.468 0 106.693 0.034785 106.902 0.104355C107.112 0.172444 107.301 0.273098 107.468 0.406317C107.636 0.538056 107.774 0.699398 107.884 0.890345C107.993 1.07981 108.067 1.29666 108.106 1.5409Z" fill="white"/>
<path d="M111.75 4.60937L110.222 2.57112H109.738V4.60937H109.052V0.0621688H109.738V1.98274H109.962L111.681 0.0621688H112.518L110.699 2.0982L112.587 4.60937H111.75Z" fill="white"/>
<path d="M113.348 0.0621688H114.027V3.40152H114.069L116.383 0.0621688H117.018V4.60937H116.332V1.27446H116.29L113.98 4.60937H113.348V0.0621688Z" fill="white"/>
<path d="M118.144 4.60937V0.0621688H120.995V0.652772H118.83V2.03825H120.847V2.62663H118.83V4.01877H121.022V4.60937H118.144Z" fill="white"/>
<path d="M70.526 12.2736V7.7264H72.147C72.5008 7.7264 72.7939 7.79079 73.0263 7.91957C73.2588 8.04835 73.4327 8.22449 73.5482 8.448C73.6637 8.67003 73.7214 8.92019 73.7214 9.19847C73.7214 9.47823 73.6629 9.72986 73.546 9.95337C73.4305 10.1754 73.2558 10.3516 73.0219 10.4818C72.7895 10.6106 72.4971 10.675 72.1448 10.675H71.03V10.0933H72.0826C72.3061 10.0933 72.4875 10.0548 72.6266 9.9778C72.7658 9.89935 72.8679 9.79277 72.9331 9.65807C72.9982 9.52337 73.0308 9.37017 73.0308 9.19847C73.0308 9.02676 72.9982 8.8743 72.9331 8.74108C72.8679 8.60786 72.7651 8.50351 72.6244 8.42802C72.4853 8.35253 72.3017 8.31478 72.0737 8.31478H71.2121V12.2736H70.526Z" fill="white"/>
<path d="M74.5526 12.2736H73.8242L75.4608 7.7264H76.2536L77.8902 12.2736H77.1618L75.8761 8.55236H75.8405L74.5526 12.2736ZM74.6747 10.4929H77.0374V11.0702H74.6747V10.4929Z" fill="white"/>
<path d="M78.3278 13.3727V11.6919H78.6275C78.7297 11.606 78.8252 11.4839 78.914 11.3255C79.0028 11.1671 79.0783 10.9533 79.1405 10.6839C79.2027 10.4145 79.2456 10.0688 79.2693 9.64697L79.3759 7.7264H82.1805V11.6919H82.6957V13.366H82.0384V12.2736H78.9851V13.3727H78.3278ZM79.4358 11.6919H81.5232V8.317H79.9976L79.9266 9.64697C79.9073 9.96818 79.8755 10.2568 79.8311 10.5129C79.7882 10.769 79.7327 10.9954 79.6646 11.1923C79.5979 11.3877 79.5217 11.5542 79.4358 11.6919Z" fill="white"/>
<path d="M83.5724 7.7264H84.2519V11.0658H84.2941L86.608 7.7264H87.243V12.2736H86.5569V8.93869H86.5147L84.2053 12.2736H83.5724V7.7264Z" fill="white"/>
<path d="M92.3195 10C92.3195 10.4855 92.2306 10.9029 92.053 11.2523C91.8754 11.6001 91.6318 11.868 91.3224 12.056C91.0145 12.2425 90.6644 12.3358 90.2721 12.3358C89.8783 12.3358 89.5267 12.2425 89.2173 12.056C88.9094 11.868 88.6666 11.5994 88.489 11.25C88.3113 10.9007 88.2225 10.484 88.2225 10C88.2225 9.51449 88.3113 9.09781 88.489 8.74996C88.6666 8.40064 88.9094 8.13272 89.2173 7.94621C89.5267 7.75823 89.8783 7.66423 90.2721 7.66423C90.6644 7.66423 91.0145 7.75823 91.3224 7.94621C91.6318 8.13272 91.8754 8.40064 92.053 8.74996C92.2306 9.09781 92.3195 9.51449 92.3195 10ZM91.64 10C91.64 9.62995 91.58 9.31837 91.4601 9.06525C91.3417 8.81065 91.1788 8.61823 90.9716 8.48797C90.7658 8.35623 90.5326 8.29036 90.2721 8.29036C90.0101 8.29036 89.7762 8.35623 89.5704 8.48797C89.3646 8.61823 89.2018 8.81065 89.0818 9.06525C88.9634 9.31837 88.9042 9.62995 88.9042 10C88.9042 10.3701 88.9634 10.6824 89.0818 10.937C89.2018 11.1901 89.3646 11.3825 89.5704 11.5143C89.7762 11.6445 90.0101 11.7096 90.2721 11.7096C90.5326 11.7096 90.7658 11.6445 90.9716 11.5143C91.1788 11.3825 91.3417 11.1901 91.4601 10.937C91.58 10.6824 91.64 10.3701 91.64 10Z" fill="white"/>
<path d="M92.9558 12.2736V11.6786L93.0891 11.6741C93.2697 11.6697 93.4118 11.6082 93.5154 11.4898C93.6205 11.3714 93.6968 11.1805 93.7441 10.917C93.793 10.6535 93.8256 10.302 93.8418 9.86234L93.9196 7.7264H96.7952V12.2736H96.118V8.30812H94.5658L94.4947 10.0444C94.4755 10.5314 94.4266 10.9407 94.3481 11.2722C94.2697 11.6023 94.1364 11.8517 93.9484 12.0205C93.7619 12.1892 93.4962 12.2736 93.1512 12.2736H92.9558Z" fill="white"/>
<path d="M101.87 10C101.87 10.4855 101.781 10.9029 101.604 11.2523C101.426 11.6001 101.182 11.868 100.873 12.056C100.565 12.2425 100.215 12.3358 99.8226 12.3358C99.4288 12.3358 99.0772 12.2425 98.7678 12.056C98.4599 11.868 98.2171 11.5994 98.0395 11.25C97.8618 10.9007 97.773 10.484 97.773 10C97.773 9.51449 97.8618 9.09781 98.0395 8.74996C98.2171 8.40064 98.4599 8.13272 98.7678 7.94621C99.0772 7.75823 99.4288 7.66423 99.8226 7.66423C100.215 7.66423 100.565 7.75823 100.873 7.94621C101.182 8.13272 101.426 8.40064 101.604 8.74996C101.781 9.09781 101.87 9.51449 101.87 10ZM101.19 10C101.19 9.62995 101.131 9.31837 101.011 9.06525C100.892 8.81065 100.729 8.61823 100.522 8.48797C100.316 8.35623 100.083 8.29036 99.8226 8.29036C99.5606 8.29036 99.3267 8.35623 99.1209 8.48797C98.9151 8.61823 98.7523 8.81065 98.6324 9.06525C98.5139 9.31837 98.4547 9.62995 98.4547 10C98.4547 10.3701 98.5139 10.6824 98.6324 10.937C98.7523 11.1901 98.9151 11.3825 99.1209 11.5143C99.3267 11.6445 99.5606 11.7096 99.8226 11.7096C100.083 11.7096 100.316 11.6445 100.522 11.5143C100.729 11.3825 100.892 11.1901 101.011 10.937C101.131 10.6824 101.19 10.3701 101.19 10Z" fill="white"/>
<path d="M105.686 7.7264V8.317H103.537V12.2736H102.851V7.7264H105.686Z" fill="white"/>
<path d="M106.585 7.7264H107.264V11.0658H107.306L109.62 7.7264H110.255V12.2736H109.569V8.93869H109.527L107.217 12.2736H106.585V7.7264Z" fill="white"/>
<path d="M111.472 7.7264H112.15V9.22733C112.15 9.43604 112.186 9.60108 112.258 9.72246C112.331 9.84236 112.436 9.92747 112.574 9.9778C112.713 10.0281 112.882 10.0533 113.08 10.0533C113.185 10.0533 113.292 10.0496 113.4 10.0422C113.509 10.0333 113.618 10.0215 113.726 10.0067C113.834 9.99038 113.939 9.97188 114.039 9.95115C114.141 9.92895 114.236 9.90453 114.324 9.87788V10.4618C114.238 10.49 114.147 10.5151 114.05 10.5373C113.956 10.558 113.856 10.5765 113.753 10.5928C113.649 10.6076 113.541 10.6195 113.429 10.6283C113.316 10.6372 113.2 10.6417 113.08 10.6417C112.748 10.6417 112.462 10.5943 112.221 10.4996C111.981 10.4034 111.796 10.2516 111.666 10.0444C111.537 9.83718 111.472 9.56482 111.472 9.22733V7.7264ZM114.221 7.7264H114.901V12.2736H114.221V7.7264Z" fill="white"/>
<path d="M116.08 12.2736V7.7264H118.931V8.317H116.766V9.70248H118.783V10.2909H116.766V11.683H118.958V12.2736H116.08Z" fill="white"/>
<path d="M123.75 9.20513H123.057C123.031 9.05711 122.981 8.92685 122.909 8.81435C122.836 8.70186 122.747 8.60638 122.642 8.52793C122.537 8.44948 122.419 8.39027 122.289 8.35031C122.16 8.31034 122.023 8.29036 121.878 8.29036C121.616 8.29036 121.382 8.35623 121.174 8.48797C120.969 8.61971 120.806 8.81287 120.686 9.06747C120.567 9.32207 120.508 9.63291 120.508 10C120.508 10.3701 120.567 10.6824 120.686 10.937C120.806 11.1916 120.969 11.384 121.177 11.5143C121.384 11.6445 121.617 11.7096 121.876 11.7096C122.02 11.7096 122.156 11.6904 122.285 11.6519C122.415 11.6119 122.533 11.5535 122.638 11.4765C122.743 11.3995 122.832 11.3055 122.904 11.1945C122.978 11.082 123.029 10.9533 123.057 10.8082L123.75 10.8104C123.713 11.0339 123.641 11.2397 123.535 11.4277C123.43 11.6142 123.294 11.7755 123.129 11.9117C122.964 12.0464 122.776 12.1507 122.564 12.2248C122.353 12.2988 122.122 12.3358 121.872 12.3358C121.478 12.3358 121.127 12.2425 120.819 12.056C120.511 11.868 120.268 11.5994 120.091 11.25C119.915 10.9007 119.826 10.484 119.826 10C119.826 9.51449 119.915 9.09781 120.093 8.74996C120.271 8.40064 120.513 8.13272 120.821 7.94621C121.129 7.75823 121.479 7.66423 121.872 7.66423C122.113 7.66423 122.338 7.69902 122.547 7.76859C122.757 7.83668 122.946 7.93733 123.113 8.07055C123.28 8.20229 123.419 8.36363 123.528 8.55458C123.638 8.74404 123.712 8.96089 123.75 9.20513Z" fill="white"/>
<path d="M127.394 12.2736L125.867 10.2354H125.383V12.2736H124.696V7.7264H125.383V9.64697H125.607L127.326 7.7264H128.163L126.344 9.76243L128.232 12.2736H127.394Z" fill="white"/>
<path d="M128.992 7.7264H129.672V11.0658H129.714L132.028 7.7264H132.663V12.2736H131.977V8.93869H131.935L129.625 12.2736H128.992V7.7264Z" fill="white"/>
<path d="M133.789 12.2736V7.7264H136.64V8.317H134.475V9.70248H136.491V10.2909H134.475V11.683H136.667V12.2736H133.789Z" fill="white"/>
<path d="M74.3032 16.8694H73.6104C73.5837 16.7213 73.5341 16.5911 73.4616 16.4786C73.389 16.3661 73.3002 16.2706 73.1951 16.1922C73.09 16.1137 72.9723 16.0545 72.842 16.0145C72.7132 15.9746 72.5763 15.9546 72.4312 15.9546C72.1692 15.9546 71.9345 16.0205 71.7273 16.1522C71.5215 16.2839 71.3587 16.4771 71.2388 16.7317C71.1203 16.9863 71.0611 17.2971 71.0611 17.6642C71.0611 18.0343 71.1203 18.3466 71.2388 18.6012C71.3587 18.8558 71.5223 19.0482 71.7295 19.1785C71.9368 19.3087 72.1699 19.3739 72.429 19.3739C72.5726 19.3739 72.7088 19.3546 72.8376 19.3161C72.9679 19.2762 73.0856 19.2177 73.1907 19.1407C73.2958 19.0638 73.3846 18.9698 73.4571 18.8588C73.5312 18.7463 73.5822 18.6175 73.6104 18.4724L74.3032 18.4746C74.2662 18.6982 74.1944 18.9039 74.0878 19.0919C73.9827 19.2784 73.8472 19.4397 73.6814 19.5759C73.5171 19.7106 73.3291 19.815 73.1174 19.889C72.9057 19.963 72.6747 20 72.4246 20C72.0308 20 71.6799 19.9067 71.372 19.7202C71.0641 19.5323 70.8213 19.2636 70.6436 18.9143C70.4675 18.5649 70.3794 18.1483 70.3794 17.6642C70.3794 17.1787 70.4682 16.762 70.6459 16.4142C70.8235 16.0649 71.0663 15.7969 71.3742 15.6104C71.6821 15.4225 72.0323 15.3285 72.4246 15.3285C72.6659 15.3285 72.8909 15.3632 73.0996 15.4328C73.3098 15.5009 73.4986 15.6016 73.6659 15.7348C73.8332 15.8665 73.9716 16.0279 74.0811 16.2188C74.1907 16.4083 74.2647 16.6251 74.3032 16.8694Z" fill="white"/>
<path d="M75.2493 15.3906H75.9288V18.73H75.971L78.2849 15.3906H78.9199V19.9378H78.2338V16.6029H78.1916L75.8822 19.9378H75.2493V15.3906Z" fill="white"/>
<path d="M83.8232 16.8694H83.1304C83.1037 16.7213 83.0541 16.5911 82.9816 16.4786C82.909 16.3661 82.8202 16.2706 82.7151 16.1922C82.61 16.1137 82.4923 16.0545 82.362 16.0145C82.2332 15.9746 82.0963 15.9546 81.9512 15.9546C81.6892 15.9546 81.4545 16.0205 81.2473 16.1522C81.0415 16.2839 80.8787 16.4771 80.7588 16.7317C80.6403 16.9863 80.5811 17.2971 80.5811 17.6642C80.5811 18.0343 80.6403 18.3466 80.7588 18.6012C80.8787 18.8558 81.0423 19.0482 81.2495 19.1785C81.4568 19.3087 81.6899 19.3739 81.949 19.3739C82.0926 19.3739 82.2288 19.3546 82.3576 19.3161C82.4879 19.2762 82.6055 19.2177 82.7107 19.1407C82.8158 19.0638 82.9046 18.9698 82.9771 18.8588C83.0511 18.7463 83.1022 18.6175 83.1304 18.4724L83.8232 18.4746C83.7862 18.6982 83.7144 18.9039 83.6078 19.0919C83.5027 19.2784 83.3672 19.4397 83.2014 19.5759C83.0371 19.7106 82.8491 19.815 82.6374 19.889C82.4257 19.963 82.1947 20 81.9446 20C81.5508 20 81.1999 19.9067 80.892 19.7202C80.5841 19.5323 80.3413 19.2636 80.1636 18.9143C79.9875 18.5649 79.8994 18.1483 79.8994 17.6642C79.8994 17.1787 79.9882 16.762 80.1659 16.4142C80.3435 16.0649 80.5863 15.7969 80.8942 15.6104C81.2021 15.4225 81.5522 15.3285 81.9446 15.3285C82.1859 15.3285 82.4109 15.3632 82.6196 15.4328C82.8298 15.5009 83.0186 15.6016 83.1859 15.7348C83.3532 15.8665 83.4916 16.0279 83.6011 16.2188C83.7107 16.4083 83.7847 16.6251 83.8232 16.8694Z" fill="white"/>
<path d="M84.545 15.9812V15.3906H88.0647V15.9812H86.6457V19.9378H85.9618V15.9812H84.545Z" fill="white"/>
<path d="M88.9675 19.9378V15.3906H91.8187V15.9812H89.6537V17.3667H91.67V17.9551H89.6537V19.3472H91.8454V19.9378H88.9675Z" fill="white"/>
<path d="M92.8603 15.3906H93.6931L95.1409 18.9254H95.1942L96.642 15.3906H97.4747V19.9378H96.8219V16.6473H96.7797L95.4384 19.9312H94.8966L93.5554 16.6451H93.5132V19.9378H92.8603V15.3906Z" fill="white"/>
<path d="M99.0793 17.2246H100.305C100.643 17.2246 100.93 17.2794 101.167 17.3889C101.403 17.4984 101.584 17.6531 101.708 17.853C101.834 18.0528 101.896 18.2881 101.895 18.559C101.896 18.8299 101.834 19.069 101.708 19.2762C101.584 19.4834 101.403 19.6455 101.167 19.7624C100.93 19.8794 100.643 19.9378 100.305 19.9378H98.6018V15.3906H99.2902V19.3606H100.305C100.502 19.3606 100.668 19.3221 100.802 19.2451C100.939 19.1681 101.042 19.0682 101.111 18.9454C101.182 18.8225 101.218 18.6908 101.218 18.5501C101.218 18.3459 101.139 18.1705 100.982 18.0239C100.825 17.8759 100.6 17.8019 100.305 17.8019H99.0793V17.2246ZM103.003 15.3906V19.9378H102.315V15.3906H103.003Z" fill="white"/>
</svg>
