<svg width="342" height="50" viewBox="0 0 342 50" fill="none" xmlns="http://www.w3.org/2000/svg">
<path d="M62.0447 48.1481C62.1484 48.1481 62.2002 48.3025 62.2002 48.6111C62.2002 48.9197 62.1484 49.0741 62.0447 49.0741C60.3342 49.0741 58.9606 49.0484 57.9239 48.9969L52.3259 48.9198L46.8834 48.9969C45.9504 49.0484 44.6286 49.0741 42.9181 49.0741C42.8145 49.0741 42.7626 48.9197 42.7626 48.6111C42.7626 48.3025 42.8145 48.1481 42.9181 48.1481C45.1988 48.1481 46.7279 47.8909 47.5054 47.3765C48.2829 46.8621 48.6717 45.7819 48.6717 44.1358L48.5939 42.8241L47.0389 10.108L30.4781 48.5339C30.3744 48.7397 30.1671 48.8426 29.8561 48.8426C29.5969 48.8426 29.3637 48.7397 29.1563 48.5339L9.71878 10.4167L9.01903 39.7377C8.96719 42.464 9.48553 44.5473 10.574 45.9876C11.7144 47.428 13.399 48.1481 15.6278 48.1481C15.7833 48.1481 15.861 48.3025 15.861 48.6111C15.861 48.9197 15.7833 49.0741 15.6278 49.0741C14.2283 49.0741 13.1398 49.0484 12.3623 48.9969L8.08602 48.9198L3.49876 48.9969C2.72126 49.0484 1.63276 49.0741 0.233251 49.0741C0.0777504 49.0741 0 48.9197 0 48.6111C0 48.3025 0.0777504 48.1481 0.233251 48.1481C2.35842 48.1481 3.99118 47.428 5.13152 45.9876C6.32369 44.5473 6.94569 42.464 6.99752 39.7377L7.69727 6.55864C6.76427 4.91255 5.7276 3.7037 4.58726 2.9321C3.49876 2.16049 2.22884 1.77469 0.777503 1.77469C0.622002 1.77469 0.544252 1.62037 0.544252 1.31173C0.544252 1.00309 0.622002 0.848768 0.777503 0.848768L4.12076 0.925926C4.7946 0.977366 5.67577 1.00309 6.76427 1.00309L10.4185 0.925926C10.8332 0.874487 11.3515 0.848768 11.9735 0.848768C12.6474 0.848768 13.1916 1.10597 13.6063 1.62037C14.021 2.08333 14.6689 3.16358 15.55 4.86111L32.6551 37.963L48.1274 2.77778C48.4384 2.05761 48.7753 1.56893 49.1382 1.31173C49.501 1.00309 49.9416 0.848768 50.4599 0.848768C50.8227 0.848768 51.2892 0.874487 51.8594 0.925926C52.4296 0.977366 53.1293 1.00309 53.9587 1.00309L58.1572 0.925926C58.831 0.874487 59.8418 0.848768 61.1894 0.848768C61.2931 0.848768 61.3449 1.00309 61.3449 1.31173C61.3449 1.62037 61.2931 1.77469 61.1894 1.77469C58.7014 1.77469 56.8873 2.23765 55.7469 3.16358C54.6584 4.03807 54.166 5.50411 54.2697 7.56173L56.0579 42.8241C56.1616 44.4187 56.343 45.5761 56.6022 46.2963C56.9132 47.0165 57.4574 47.5051 58.2349 47.7623C59.0124 48.0195 60.2824 48.1481 62.0447 48.1481Z" fill="white"/>
<path d="M80.0524 42.5154C80.0524 44.1615 80.2338 45.3704 80.5966 46.142C81.0113 46.8621 81.7629 47.3765 82.8514 47.6852C83.9917 47.9938 85.7541 48.1481 88.1384 48.1481C88.2939 48.1481 88.3717 48.3025 88.3717 48.6111C88.3717 48.9197 88.2939 49.0741 88.1384 49.0741C86.0132 49.0741 84.3546 49.0484 83.1624 48.9969L76.3981 48.9198L70.8001 48.9969C69.8153 49.0484 68.4676 49.0741 66.7571 49.0741C66.6016 49.0741 66.5238 48.9197 66.5238 48.6111C66.5238 48.3025 66.6016 48.1481 66.7571 48.1481C68.5194 48.1481 69.7893 48.0195 70.5668 47.7623C71.3444 47.5051 71.8627 47.0165 72.1218 46.2963C72.4329 45.5761 72.5884 44.4187 72.5884 42.8241V7.09876C72.5884 5.55556 72.4329 4.42387 72.1218 3.70371C71.8627 2.98354 71.3184 2.49485 70.4891 2.23765C69.7116 1.92901 68.4676 1.77469 66.7571 1.77469C66.6016 1.77469 66.5238 1.62037 66.5238 1.31173C66.5238 1.00309 66.6016 0.848768 66.7571 0.848768L70.8001 0.925926C73.0808 1.02881 74.9209 1.08025 76.3204 1.08025C77.5125 1.08025 78.9639 1.00309 80.6744 0.848768C81.2964 0.797325 82.1257 0.745884 83.1624 0.694444C84.2509 0.643005 85.5208 0.617286 86.9721 0.617286C92.1037 0.617286 96.1467 1.69753 99.1012 3.85803C102.108 6.01852 103.611 9.33642 103.611 13.8117C103.611 17.0525 102.755 19.8045 101.045 22.0679C99.3863 24.3313 97.2352 26.0288 94.5917 27.1605C92 28.2922 89.3306 28.858 86.5834 28.858C85.1321 28.858 83.914 28.7294 82.9291 28.4722C82.7736 28.4722 82.6959 28.3436 82.6959 28.0864C82.6959 27.9321 82.7218 27.7778 82.7736 27.6235C82.8773 27.4691 82.981 27.4177 83.0846 27.4691C83.914 27.6749 84.8211 27.7778 85.8059 27.7778C88.5012 27.7778 90.7819 26.6718 92.6479 24.4599C94.5139 22.2479 95.4469 19.0844 95.4469 14.9691C95.4469 10.9053 94.488 7.76749 92.5702 5.55556C90.6523 3.29218 88.0088 2.16049 84.6396 2.16049C83.3956 2.16049 82.4367 2.28909 81.7629 2.5463C81.1409 2.8035 80.7003 3.29218 80.4411 4.01234C80.182 4.68107 80.0524 5.76131 80.0524 7.25308V42.5154Z" fill="white"/>
<path d="M139.205 0C141.538 0 143.948 0.205762 146.436 0.617286C148.976 1.02881 150.971 1.59465 152.423 2.31482C152.889 2.46914 153.174 2.6749 153.278 2.9321C153.433 3.13786 153.537 3.52366 153.589 4.08951L154.522 14.1204C154.522 14.2747 154.392 14.3776 154.133 14.429C153.874 14.4805 153.718 14.4033 153.667 14.1975C152.163 10.1852 149.883 7.12448 146.825 5.01543C143.818 2.90638 140.268 1.85185 136.173 1.85185C130.782 1.85185 126.558 3.72942 123.5 7.48457C120.441 11.2397 118.912 16.2809 118.912 22.608C118.912 27.3405 119.742 31.6872 121.4 35.6481C123.111 39.6091 125.443 42.7469 128.398 45.0617C131.404 47.3765 134.747 48.5339 138.428 48.5339C145.425 48.5339 150.738 44.213 154.366 35.571C154.418 35.3652 154.574 35.2881 154.833 35.3395C155.144 35.3909 155.299 35.4938 155.299 35.6481L154.133 45.5247C154.029 46.142 153.9 46.5535 153.744 46.7593C153.641 46.9136 153.356 47.0936 152.889 47.2994C148.38 49.0998 143.585 50 138.505 50C132.182 50 126.921 48.7654 122.722 46.2963C118.524 43.7757 115.414 40.5864 113.392 36.7284C111.422 32.8704 110.438 28.858 110.438 24.6914C110.438 19.856 111.759 15.5607 114.403 11.8056C117.098 8.05041 120.649 5.14403 125.055 3.08642C129.46 1.02881 134.177 0 139.205 0Z" fill="white"/>
<path d="M176.099 0.155422H178.179L181.794 8.99227H181.927L185.542 0.155422H187.621V11.5234H185.991V3.29716H185.886L182.537 11.5068H181.184L177.835 3.29161H177.729V11.5234H176.099V0.155422Z" fill="white"/>
<path d="M190.425 11.5234V0.155422H197.544V1.63193H192.138V5.09562H197.172V6.56657H192.138V10.0469H197.61V11.5234H190.425Z" fill="white"/>
<path d="M199.285 14.2711V10.0691H200.034C200.289 9.85449 200.527 9.54919 200.749 9.15324C200.971 8.75728 201.159 8.22256 201.315 7.54906C201.47 6.87557 201.577 6.0115 201.636 4.95685L201.902 0.155422H208.905V10.0691H210.192V14.2544H208.551V11.5234H200.927V14.2711H199.285ZM202.052 10.0691H207.264V1.63193H203.455L203.278 4.95685C203.229 5.75986 203.15 6.48146 203.039 7.12165C202.932 7.76184 202.793 8.32802 202.623 8.82019C202.457 9.30866 202.267 9.72497 202.052 10.0691Z" fill="white"/>
<path d="M212.381 0.155422H214.078V8.5038H214.183L219.961 0.155422H221.546V11.5234H219.833V3.18615H219.728L213.961 11.5234H212.381V0.155422Z" fill="white"/>
<path d="M234.433 10.0081L234.283 14.21H232.575V11.5234H231.777V10.0081H234.433ZM224.358 11.5234V0.155422H225.999V10.0358H231.477V0.155422H233.124V11.5234H224.358Z" fill="white"/>
<path d="M236.625 0.155422H238.321V8.5038H238.427L244.204 0.155422H245.79V11.5234H244.077V3.18615H243.971L238.205 11.5234H236.625V0.155422Z" fill="white"/>
<path d="M248.602 11.5234V0.155422H250.315V5.09562H255.976V0.155422H257.695V11.5234H255.976V6.56657H250.315V11.5234H248.602Z" fill="white"/>
<path d="M269.934 3.85224H268.204C268.137 3.48219 268.014 3.15654 267.832 2.8753C267.651 2.59407 267.429 2.35538 267.167 2.15925C266.905 1.96313 266.611 1.81511 266.285 1.71519C265.964 1.61528 265.622 1.56532 265.26 1.56532C264.605 1.56532 264.019 1.72999 263.502 2.05934C262.988 2.38869 262.582 2.8716 262.282 3.50809C261.986 4.14458 261.839 4.92169 261.839 5.83942C261.839 6.76455 261.986 7.54536 262.282 8.18185C262.582 8.81834 262.99 9.29941 263.508 9.62506C264.025 9.9507 264.607 10.1135 265.254 10.1135C265.613 10.1135 265.953 10.0654 266.274 9.9692C266.6 9.86929 266.894 9.72312 267.156 9.53069C267.418 9.33826 267.64 9.10328 267.821 8.82574C268.006 8.5445 268.134 8.22256 268.204 7.85991L269.934 7.86546C269.841 8.42424 269.662 8.93861 269.396 9.40857C269.134 9.87484 268.795 10.2782 268.381 10.6186C267.971 10.9554 267.502 11.2163 266.973 11.4013C266.444 11.5863 265.868 11.6788 265.243 11.6788C264.26 11.6788 263.384 11.4457 262.615 10.9794C261.846 10.5095 261.24 9.83784 260.796 8.96451C260.356 8.09119 260.136 7.04949 260.136 5.83942C260.136 4.62565 260.358 3.58395 260.802 2.71433C261.245 1.84101 261.852 1.17121 262.62 0.704949C263.389 0.234983 264.263 0 265.243 0C265.846 0 266.407 0.0869625 266.929 0.260887C267.454 0.431111 267.925 0.682746 268.343 1.01579C268.76 1.34514 269.106 1.7485 269.379 2.22586C269.653 2.69953 269.838 3.24166 269.934 3.85224Z" fill="white"/>
<path d="M279.033 11.5234L275.218 6.4278H274.01V11.5234H272.296V0.155422H274.01V4.95685H274.57L278.861 0.155422H280.952L276.41 5.24549L281.123 11.5234H279.033Z" fill="white"/>
<path d="M283.023 0.155422H284.72V8.5038H284.825L290.603 0.155422H292.188V11.5234H290.475V3.18615H290.37L284.603 11.5234H283.023V0.155422Z" fill="white"/>
<path d="M295 11.5234V0.155422H302.119V1.63193H296.713V5.09562H301.748V6.56657H296.713V10.0469H302.186V11.5234H295Z" fill="white"/>
<path d="M176.099 30.684V19.316H180.147C181.03 19.316 181.762 19.477 182.343 19.7989C182.923 20.1209 183.357 20.5612 183.646 21.12C183.934 21.6751 184.078 22.3005 184.078 22.9962C184.078 23.6956 183.932 24.3247 183.64 24.8834C183.352 25.4385 182.916 25.8789 182.332 26.2045C181.751 26.5265 181.021 26.6874 180.141 26.6874H177.358V25.2331H179.986C180.544 25.2331 180.997 25.1369 181.345 24.9445C181.692 24.7484 181.947 24.4819 182.11 24.1452C182.272 23.8084 182.354 23.4254 182.354 22.9962C182.354 22.5669 182.272 22.1858 182.11 21.8527C181.947 21.5197 181.69 21.2588 181.339 21.07C180.992 20.8813 180.533 20.787 179.964 20.787H177.813V30.684H176.099Z" fill="white"/>
<path d="M186.154 30.684H184.335L188.421 19.316H190.401L194.487 30.684H192.669L189.458 21.3809H189.37L186.154 30.684ZM186.459 26.2323H192.358V27.6755H186.459V26.2323Z" fill="white"/>
<path d="M195.58 33.4316V29.2297H196.329C196.584 29.0151 196.822 28.7098 197.044 28.3138C197.266 27.9179 197.454 27.3831 197.609 26.7096C197.765 26.0361 197.872 25.1721 197.931 24.1174L198.197 19.316H205.2V29.2297H206.487V33.415H204.845V30.684H197.221V33.4316H195.58ZM198.347 29.2297H203.559V20.7925H199.75L199.572 24.1174C199.524 24.9204 199.445 25.642 199.334 26.2822C199.227 26.9224 199.088 27.4886 198.918 27.9808C198.752 28.4692 198.561 28.8855 198.347 29.2297Z" fill="white"/>
<path d="M208.676 19.316H210.372V27.6644H210.478L216.255 19.316H217.841V30.684H216.128V22.3467H216.022L210.256 30.684H208.676V19.316Z" fill="white"/>
<path d="M230.517 25C230.517 26.2138 230.295 27.2573 229.851 28.1306C229.408 29.0003 228.8 29.6701 228.027 30.14C227.258 30.6063 226.384 30.8394 225.404 30.8394C224.421 30.8394 223.543 30.6063 222.771 30.14C222.002 29.6701 221.396 28.9984 220.952 28.1251C220.509 27.2518 220.287 26.2101 220.287 25C220.287 23.7862 220.509 22.7445 220.952 21.8749C221.396 21.0016 222.002 20.3318 222.771 19.8655C223.543 19.3956 224.421 19.1606 225.404 19.1606C226.384 19.1606 227.258 19.3956 228.027 19.8655C228.8 20.3318 229.408 21.0016 229.851 21.8749C230.295 22.7445 230.517 23.7862 230.517 25ZM228.82 25C228.82 24.0749 228.67 23.2959 228.371 22.6631C228.075 22.0266 227.669 21.5456 227.151 21.2199C226.637 20.8906 226.055 20.7259 225.404 20.7259C224.75 20.7259 224.166 20.8906 223.652 21.2199C223.139 21.5456 222.732 22.0266 222.433 22.6631C222.137 23.2959 221.989 24.0749 221.989 25C221.989 25.9251 222.137 26.7059 222.433 27.3424C222.732 27.9752 223.139 28.4563 223.652 28.7856C224.166 29.1113 224.75 29.2741 225.404 29.2741C226.055 29.2741 226.637 29.1113 227.151 28.7856C227.669 28.4563 228.075 27.9752 228.371 27.3424C228.67 26.7059 228.82 25.9251 228.82 25Z" fill="white"/>
<path d="M232.106 30.684V29.1964L232.438 29.1853C232.889 29.1742 233.244 29.0206 233.503 28.7246C233.765 28.4285 233.956 27.9512 234.074 27.2925C234.196 26.6338 234.277 25.7549 234.318 24.6559L234.512 19.316H241.692V30.684H240.001V20.7703H236.126L235.948 25.111C235.9 26.3285 235.778 27.3517 235.582 28.1806C235.386 29.0058 235.054 29.6294 234.584 30.0512C234.118 30.4731 233.455 30.684 232.594 30.684H232.106Z" fill="white"/>
<path d="M254.364 25C254.364 26.2138 254.142 27.2573 253.699 28.1306C253.255 29.0003 252.647 29.6701 251.874 30.14C251.105 30.6063 250.231 30.8394 249.252 30.8394C248.268 30.8394 247.391 30.6063 246.618 30.14C245.849 29.6701 245.243 28.9984 244.799 28.1251C244.356 27.2518 244.134 26.2101 244.134 25C244.134 23.7862 244.356 22.7445 244.799 21.8749C245.243 21.0016 245.849 20.3318 246.618 19.8655C247.391 19.3956 248.268 19.1606 249.252 19.1606C250.231 19.1606 251.105 19.3956 251.874 19.8655C252.647 20.3318 253.255 21.0016 253.699 21.8749C254.142 22.7445 254.364 23.7862 254.364 25ZM252.667 25C252.667 24.0749 252.518 23.2959 252.218 22.6631C251.922 22.0266 251.516 21.5456 250.998 21.2199C250.484 20.8906 249.902 20.7259 249.252 20.7259C248.597 20.7259 248.013 20.8906 247.5 21.2199C246.986 21.5456 246.579 22.0266 246.28 22.6631C245.984 23.2959 245.836 24.0749 245.836 25C245.836 25.9251 245.984 26.7059 246.28 27.3424C246.579 27.9752 246.986 28.4563 247.5 28.7856C248.013 29.1113 248.597 29.2741 249.252 29.2741C249.902 29.2741 250.484 29.1113 250.998 28.7856C251.516 28.4563 251.922 27.9752 252.218 27.3424C252.518 26.7059 252.667 25.9251 252.667 25Z" fill="white"/>
<path d="M263.893 19.316V20.7925H258.526V30.684H256.812V19.316H263.893Z" fill="white"/>
<path d="M266.136 19.316H267.833V27.6644H267.938L273.716 19.316H275.302V30.684H273.588V22.3467H273.483L267.716 30.684H266.136V19.316Z" fill="white"/>
<path d="M278.34 19.316H280.032V23.0683C280.032 23.5901 280.122 24.0027 280.303 24.3062C280.484 24.6059 280.747 24.8187 281.091 24.9445C281.438 25.0703 281.859 25.1332 282.355 25.1332C282.617 25.1332 282.883 25.124 283.153 25.1055C283.427 25.0833 283.698 25.0537 283.968 25.0167C284.238 24.976 284.499 24.9297 284.75 24.8779C285.005 24.8224 285.242 24.7613 285.46 24.6947V26.1546C285.245 26.2249 285.018 26.2878 284.778 26.3433C284.541 26.3951 284.294 26.4414 284.035 26.4821C283.776 26.5191 283.506 26.5487 283.225 26.5709C282.944 26.5931 282.654 26.6042 282.355 26.6042C281.527 26.6042 280.812 26.4858 280.209 26.2489C279.61 26.0084 279.148 25.6291 278.823 25.111C278.501 24.5929 278.34 23.912 278.34 23.0683V19.316ZM285.205 19.316H286.901V30.684H285.205V19.316Z" fill="white"/>
<path d="M289.846 30.684V19.316H296.965V20.7925H291.559V24.2562H296.594V25.7272H291.559V29.2075H297.032V30.684H289.846Z" fill="white"/>
<path d="M308.998 23.0128H307.268C307.201 22.6428 307.078 22.3171 306.896 22.0359C306.715 21.7546 306.494 21.516 306.231 21.3198C305.969 21.1237 305.675 20.9757 305.349 20.8758C305.028 20.7759 304.686 20.7259 304.324 20.7259C303.669 20.7259 303.084 20.8906 302.566 21.2199C302.052 21.5493 301.646 22.0322 301.346 22.6687C301.05 23.3052 300.903 24.0823 300.903 25C300.903 25.9251 301.05 26.7059 301.346 27.3424C301.646 27.9789 302.054 28.46 302.572 28.7856C303.089 29.1113 303.671 29.2741 304.318 29.2741C304.677 29.2741 305.017 29.226 305.338 29.1298C305.664 29.0299 305.958 28.8837 306.22 28.6913C306.482 28.4988 306.704 28.2639 306.885 27.9863C307.07 27.7051 307.198 27.3831 307.268 27.0205L308.998 27.026C308.906 27.5848 308.726 28.0992 308.46 28.5692C308.198 29.0354 307.859 29.4388 307.445 29.7792C307.035 30.116 306.566 30.3769 306.037 30.5619C305.508 30.7469 304.932 30.8394 304.307 30.8394C303.324 30.8394 302.448 30.6063 301.679 30.14C300.91 29.6701 300.304 28.9984 299.86 28.1251C299.42 27.2518 299.2 26.2101 299.2 25C299.2 23.7862 299.422 22.7445 299.866 21.8749C300.309 21.0016 300.916 20.3318 301.684 19.8655C302.453 19.3956 303.328 19.1606 304.307 19.1606C304.91 19.1606 305.471 19.2475 305.993 19.4215C306.518 19.5917 306.989 19.8433 307.407 20.1764C307.824 20.5057 308.17 20.9091 308.443 21.3864C308.717 21.8601 308.902 22.4022 308.998 23.0128Z" fill="white"/>
<path d="M318.097 30.684L314.282 25.5884H313.074V30.684H311.36V19.316H313.074V24.1174H313.634L317.925 19.316H320.016L315.475 24.4061L320.188 30.684H318.097Z" fill="white"/>
<path d="M322.087 19.316H323.784V27.6644H323.889L329.667 19.316H331.252V30.684H329.539V22.3467H329.434L323.667 30.684H322.087V19.316Z" fill="white"/>
<path d="M334.064 30.684V19.316H341.183V20.7925H335.777V24.2562H340.812V25.7272H335.777V29.2075H341.25V30.684H334.064Z" fill="white"/>
<path d="M185.531 42.1734H183.801C183.734 41.8033 183.611 41.4777 183.429 41.1965C183.248 40.9152 183.027 40.6765 182.764 40.4804C182.502 40.2843 182.208 40.1363 181.882 40.0364C181.561 39.9364 181.219 39.8865 180.857 39.8865C180.202 39.8865 179.617 40.0512 179.099 40.3805C178.585 40.7098 178.179 41.1928 177.879 41.8293C177.583 42.4657 177.436 43.2429 177.436 44.1606C177.436 45.0857 177.583 45.8665 177.879 46.503C178.179 47.1395 178.587 47.6206 179.105 47.9462C179.622 48.2719 180.204 48.4347 180.851 48.4347C181.21 48.4347 181.55 48.3866 181.871 48.2904C182.197 48.1904 182.491 48.0443 182.753 47.8519C183.015 47.6594 183.237 47.4244 183.418 47.1469C183.603 46.8657 183.731 46.5437 183.801 46.1811L185.531 46.1866C185.438 46.7454 185.259 47.2598 184.993 47.7297C184.731 48.196 184.392 48.5994 183.978 48.9398C183.568 49.2766 183.099 49.5374 182.57 49.7225C182.041 49.9075 181.465 50 180.84 50C179.857 50 178.981 49.7669 178.212 49.3006C177.443 48.8306 176.837 48.159 176.393 47.2857C175.953 46.4123 175.733 45.3707 175.733 44.1606C175.733 42.9468 175.955 41.9051 176.399 41.0355C176.842 40.1622 177.449 39.4924 178.217 39.0261C178.986 38.5561 179.861 38.3212 180.84 38.3212C181.443 38.3212 182.004 38.4081 182.526 38.582C183.051 38.7523 183.522 39.0039 183.94 39.337C184.357 39.6663 184.703 40.0697 184.976 40.547C185.25 41.0207 185.435 41.5628 185.531 42.1734Z" fill="white"/>
<path d="M187.893 38.4766H189.59V46.825H189.695L195.473 38.4766H197.059V49.8446H195.345V41.5073H195.24L189.474 49.8446H187.893V38.4766Z" fill="white"/>
<path d="M209.302 42.1734H207.572C207.505 41.8033 207.382 41.4777 207.2 41.1965C207.019 40.9152 206.798 40.6765 206.535 40.4804C206.273 40.2843 205.979 40.1363 205.653 40.0364C205.332 39.9364 204.99 39.8865 204.628 39.8865C203.973 39.8865 203.388 40.0512 202.87 40.3805C202.356 40.7098 201.95 41.1928 201.65 41.8293C201.354 42.4657 201.207 43.2429 201.207 44.1606C201.207 45.0857 201.354 45.8665 201.65 46.503C201.95 47.1395 202.358 47.6206 202.876 47.9462C203.393 48.2719 203.975 48.4347 204.622 48.4347C204.981 48.4347 205.321 48.3866 205.642 48.2904C205.968 48.1904 206.262 48.0443 206.524 47.8519C206.786 47.6594 207.008 47.4244 207.189 47.1469C207.374 46.8657 207.502 46.5437 207.572 46.1811L209.302 46.1866C209.209 46.7454 209.03 47.2598 208.764 47.7297C208.502 48.196 208.163 48.5994 207.749 48.9398C207.339 49.2766 206.87 49.5374 206.341 49.7225C205.812 49.9075 205.236 50 204.611 50C203.628 50 202.752 49.7669 201.983 49.3006C201.214 48.8306 200.608 48.159 200.164 47.2857C199.724 46.4123 199.504 45.3707 199.504 44.1606C199.504 42.9468 199.726 41.9051 200.17 41.0355C200.613 40.1622 201.22 39.4924 201.988 39.0261C202.757 38.5561 203.631 38.3212 204.611 38.3212C205.214 38.3212 205.775 38.4081 206.297 38.582C206.822 38.7523 207.293 39.0039 207.711 39.337C208.128 39.6663 208.474 40.0697 208.747 40.547C209.021 41.0207 209.206 41.5628 209.302 42.1734Z" fill="white"/>
<path d="M211.104 39.9531V38.4766H219.893V39.9531H216.35V49.8446H214.642V39.9531H211.104Z" fill="white"/>
<path d="M222.147 49.8446V38.4766H229.266V39.9531H223.86V43.4168H228.895V44.8877H223.86V48.3681H229.333V49.8446H222.147Z" fill="white"/>
<path d="M231.867 38.4766H233.947L237.562 47.3134H237.695L241.31 38.4766H243.389V49.8446H241.759V41.6183H241.654L238.305 49.8279H236.952L233.603 41.6128H233.497V49.8446H231.867V38.4766Z" fill="white"/>
<path d="M247.396 43.0615H250.456C251.299 43.0615 252.016 43.1984 252.608 43.4723C253.199 43.7461 253.65 44.1328 253.961 44.6324C254.275 45.132 254.43 45.7203 254.426 46.3975C254.43 47.0747 254.275 47.6724 253.961 48.1904C253.65 48.7085 253.199 49.1137 252.608 49.4061C252.016 49.6984 251.299 49.8446 250.456 49.8446H246.203V38.4766H247.922V48.4014H250.456C250.948 48.4014 251.362 48.3052 251.698 48.1127C252.038 47.9203 252.295 47.6705 252.469 47.3634C252.646 47.0562 252.735 46.7269 252.735 46.3753C252.735 45.8647 252.539 45.4262 252.147 45.0598C251.756 44.6898 251.192 44.5047 250.456 44.5047H247.396V43.0615ZM257.193 38.4766V49.8446H255.474V38.4766H257.193Z" fill="white"/>
</svg>
