<svg width="120" height="37" viewBox="0 0 120 37" fill="none" xmlns="http://www.w3.org/2000/svg">
<path d="M27.4357 32.8607C24.4879 35.5405 20.6693 36.8804 15.9796 36.8804C11.29 36.8804 7.47137 35.5405 4.52362 32.8607C1.57587 30.1475 0.10199 26.6303 0.10199 22.3091C0.10199 17.988 1.57587 14.4875 4.52362 11.8078C7.47137 9.09449 11.29 7.73785 15.9796 7.73785C20.6693 7.73785 24.4879 9.09449 27.4357 11.8078C30.3834 14.4875 31.8573 17.988 31.8573 22.3091C31.8573 26.6303 30.3834 30.1475 27.4357 32.8607ZM12.5629 25.8263C13.4674 26.7308 14.6063 27.183 15.9796 27.183C17.353 27.183 18.4752 26.7308 19.3461 25.8263C20.2505 24.9219 20.7028 23.7495 20.7028 22.3091C20.7028 20.9022 20.2505 19.7466 19.3461 18.8422C18.4752 17.9042 17.353 17.4353 15.9796 17.4353C14.6063 17.4353 13.4674 17.8875 12.5629 18.7919C11.692 19.6963 11.2565 20.8687 11.2565 22.3091C11.2565 23.7495 11.692 24.9219 12.5629 25.8263Z" fill="#333333"/>
<path d="M51.1831 8.74277H63.5435L52.2885 35.8755H42.2896L31.0345 8.74277H43.6462L47.4146 22.8618L51.1831 8.74277Z" fill="#333333"/>
<path d="M85.9767 8.74277H94.418V35.8755H85.7757L84.8713 34.2174C82.5935 35.9927 79.9472 36.8804 76.9325 36.8804C72.7118 36.8804 69.2951 35.5405 66.6823 32.8607C64.0695 30.181 62.7632 26.6638 62.7632 22.3091C62.7632 17.988 64.0695 14.5043 66.6823 11.858C69.2951 9.17823 72.7118 7.83834 76.9325 7.83834C79.9807 7.83834 82.6437 8.75951 84.9215 10.6019L85.9767 8.74277ZM74.0182 22.3594C74.0182 23.3308 74.2359 24.2185 74.6714 25.0224C75.1069 25.7928 75.6931 26.4125 76.43 26.8815C77.2004 27.317 78.0546 27.5347 78.9925 27.5347C80.4329 27.5347 81.6221 27.049 82.56 26.0776C83.4979 25.0726 83.9669 23.8332 83.9669 22.3594C83.9669 20.8855 83.4979 19.6628 82.56 18.6914C81.6221 17.72 80.4329 17.2343 78.9925 17.2343C77.5522 17.2343 76.363 17.72 75.4251 18.6914C74.4872 19.6628 74.0182 20.8855 74.0182 22.3594Z" fill="#333333"/>
<path d="M115.283 26.1278H119.102V35.8755H111.515C108.5 35.8755 106.139 35.0213 104.43 33.313C102.722 31.5711 101.868 29.1928 101.868 26.1781V17.1841H96.8431V14.4205L110.359 0H112.771V8.74277H118.951V17.1841H113.123V23.9672C113.123 24.6037 113.307 25.1229 113.675 25.5249C114.077 25.9268 114.613 26.1278 115.283 26.1278Z" fill="#333333"/>
</svg>
