<svg width="29" height="28" viewBox="0 0 29 28" fill="none" xmlns="http://www.w3.org/2000/svg">
<path d="M19.1648 11.6663H21.4981C21.4967 10.4291 21.0047 9.24284 20.1298 8.36794C19.255 7.49306 18.0687 7.00097 16.8314 6.99967V9.33301C17.45 9.33372 18.0431 9.57978 18.4805 10.0172C18.9179 10.4546 19.1641 11.0477 19.1648 11.6663ZM23.8314 11.6663H26.1648C26.1619 9.19186 25.1777 6.81954 23.4279 5.06982C21.6782 3.32009 19.3058 2.33584 16.8314 2.33301V4.66634C18.6873 4.66838 20.4665 5.40653 21.7789 6.71885C23.0912 8.03116 23.8293 9.81045 23.8314 11.6663ZM17.3869 19.9771C15.4172 19.1217 13.6204 17.9138 12.0848 16.4129C10.5839 14.8772 9.37602 13.0805 8.52064 11.1109L11.3033 8.32827L8.39826 2.51827L6.52693 3.11689C5.29685 3.49715 4.25188 4.32074 3.59471 5.42789C2.93754 6.53505 2.71503 7.84684 2.97034 9.10877C3.85279 13.1275 5.87099 16.8081 8.78489 19.7128C11.6897 22.6267 15.3703 24.6449 19.389 25.5274C20.6509 25.7827 21.9627 25.5602 23.0698 24.903C24.1769 24.2457 25.0004 23.2007 25.3808 21.9707L25.9794 20.0994L20.1694 17.1944L17.3869 19.9771Z" fill="white"/>
</svg>
