<svg width="145" height="40" viewBox="0 0 145 40" fill="none" xmlns="http://www.w3.org/2000/svg">
<circle cx="20" cy="20" r="19" stroke="#989899" stroke-width="2"/>
<path d="M15 15H25V25" stroke="#989899" stroke-width="2" stroke-linecap="round" stroke-linejoin="round"/>
<path d="M25 15L15 25" stroke="#989899" stroke-width="2" stroke-linecap="round" stroke-linejoin="round"/>
<path d="M65.6497 14.8182V25H63.8201V16.3494H59.3656V25H57.536V14.8182H65.6497ZM76.9538 19.9091C76.9538 21.0062 76.7483 21.9458 76.3374 22.728C75.9297 23.5069 75.3729 24.1035 74.6669 24.5178C73.9643 24.9321 73.1671 25.1392 72.2756 25.1392C71.384 25.1392 70.5852 24.9321 69.8793 24.5178C69.1766 24.1001 68.6198 23.5019 68.2088 22.723C67.8011 21.9408 67.5973 21.0028 67.5973 19.9091C67.5973 18.812 67.8011 17.8741 68.2088 17.0952C68.6198 16.313 69.1766 15.7147 69.8793 15.3004C70.5852 14.8861 71.384 14.679 72.2756 14.679C73.1671 14.679 73.9643 14.8861 74.6669 15.3004C75.3729 15.7147 75.9297 16.313 76.3374 17.0952C76.7483 17.8741 76.9538 18.812 76.9538 19.9091ZM75.0994 19.9091C75.0994 19.1368 74.9785 18.4856 74.7365 17.9553C74.4979 17.4216 74.1664 17.0189 73.7422 16.7472C73.3179 16.4721 72.8291 16.3345 72.2756 16.3345C71.7221 16.3345 71.2332 16.4721 70.8089 16.7472C70.3847 17.0189 70.0516 17.4216 69.8097 17.9553C69.571 18.4856 69.4517 19.1368 69.4517 19.9091C69.4517 20.6813 69.571 21.3343 69.8097 21.8679C70.0516 22.3982 70.3847 22.8009 70.8089 23.076C71.2332 23.3478 71.7221 23.4837 72.2756 23.4837C72.8291 23.4837 73.3179 23.3478 73.7422 23.076C74.1664 22.8009 74.4979 22.3982 74.7365 21.8679C74.9785 21.3343 75.0994 20.6813 75.0994 19.9091ZM78.0364 27.456V23.4936H78.7175C78.9462 23.3113 79.16 23.0545 79.3588 22.723C79.5577 22.3916 79.7267 21.9375 79.8659 21.3608C80.0051 20.7841 80.1013 20.0384 80.1543 19.1236L80.4228 14.8182H86.9306V23.4936H88.0641V27.446H86.2942V25H79.8063V27.456H78.0364ZM80.8652 23.4936H85.1607V16.3643H82.0833L81.9242 19.1236C81.8811 19.8163 81.8115 20.4361 81.7154 20.983C81.6193 21.5298 81.4983 22.0121 81.3525 22.4297C81.2066 22.844 81.0442 23.1986 80.8652 23.4936ZM89.5668 25V14.8182H93.3849C94.1671 14.8182 94.8234 14.964 95.3537 15.2557C95.8873 15.5473 96.29 15.9484 96.5618 16.4588C96.8369 16.9659 96.9744 17.5426 96.9744 18.1889C96.9744 18.8419 96.8369 19.4219 96.5618 19.929C96.2867 20.4361 95.8807 20.8355 95.3438 21.1271C94.8068 21.4155 94.1456 21.5597 93.3601 21.5597H90.8295V20.0433H93.1115C93.5689 20.0433 93.9434 19.9638 94.2351 19.8047C94.5268 19.6456 94.7422 19.4268 94.8814 19.1484C95.0239 18.87 95.0952 18.5502 95.0952 18.1889C95.0952 17.8277 95.0239 17.5095 94.8814 17.2344C94.7422 16.9593 94.5251 16.7455 94.2301 16.593C93.9384 16.4373 93.5623 16.3594 93.1016 16.3594H91.4112V25H89.5668ZM107.675 19.9091C107.675 21.0062 107.469 21.9458 107.058 22.728C106.65 23.5069 106.094 24.1035 105.388 24.5178C104.685 24.9321 103.888 25.1392 102.996 25.1392C102.105 25.1392 101.306 24.9321 100.6 24.5178C99.8973 24.1001 99.3405 23.5019 98.9295 22.723C98.5218 21.9408 98.318 21.0028 98.318 19.9091C98.318 18.812 98.5218 17.8741 98.9295 17.0952C99.3405 16.313 99.8973 15.7147 100.6 15.3004C101.306 14.8861 102.105 14.679 102.996 14.679C103.888 14.679 104.685 14.8861 105.388 15.3004C106.094 15.7147 106.65 16.313 107.058 17.0952C107.469 17.8741 107.675 18.812 107.675 19.9091ZM105.82 19.9091C105.82 19.1368 105.699 18.4856 105.457 17.9553C105.219 17.4216 104.887 17.0189 104.463 16.7472C104.039 16.4721 103.55 16.3345 102.996 16.3345C102.443 16.3345 101.954 16.4721 101.53 16.7472C101.105 17.0189 100.772 17.4216 100.53 17.9553C100.292 18.4856 100.172 19.1368 100.172 19.9091C100.172 20.6813 100.292 21.3343 100.53 21.8679C100.772 22.3982 101.105 22.8009 101.53 23.076C101.954 23.3478 102.443 23.4837 102.996 23.4837C103.55 23.4837 104.039 23.3478 104.463 23.076C104.887 22.8009 105.219 22.3982 105.457 21.8679C105.699 21.3343 105.82 20.6813 105.82 19.9091ZM109.418 25V14.8182H115.966V16.3643H111.263V18.7507H113.227C114.005 18.7507 114.673 18.8783 115.23 19.1335C115.79 19.3854 116.219 19.7417 116.518 20.2024C116.816 20.6631 116.965 21.205 116.965 21.8281C116.965 22.4545 116.816 23.0064 116.518 23.4837C116.219 23.9576 115.79 24.3288 115.23 24.5973C114.673 24.8658 114.005 25 113.227 25H109.418ZM111.263 23.4886H113.227C113.638 23.4886 113.986 23.4107 114.271 23.255C114.556 23.0992 114.771 22.8937 114.917 22.6385C115.066 22.3833 115.141 22.1065 115.141 21.8082C115.141 21.3774 114.975 21.0111 114.643 20.7095C114.315 20.4046 113.843 20.2521 113.227 20.2521H111.263V23.4886ZM118.578 25V14.8182H120.423V19.1286H125.141V14.8182H126.99V25H125.141V20.6747H120.423V25H118.578ZM128.996 25V14.8182H135.619V16.3643H130.841V19.1286H135.276V20.6747H130.841V23.4538H135.658V25H128.996ZM137.5 25V14.8182H144.123V16.3643H139.345V19.1286H143.779V20.6747H139.345V23.4538H144.162V25H137.5Z" fill="#989899"/>
</svg>
