<svg width="145" height="40" viewBox="0 0 145 40" fill="none" xmlns="http://www.w3.org/2000/svg">
<circle cx="20" cy="20" r="19" stroke="#EA3C3D" stroke-width="2"/>
<path d="M15 15H25V25" stroke="#EA3C3D" stroke-width="2" stroke-linecap="round" stroke-linejoin="round"/>
<path d="M25 15L15 25" stroke="#EA3C3D" stroke-width="2" stroke-linecap="round" stroke-linejoin="round"/>
<path d="M65.3118 14.8182V25H63.4822V16.3494H59.0277V25H57.1982V14.8182H65.3118ZM76.6159 19.9091C76.6159 21.0062 76.4105 21.9458 75.9995 22.728C75.5918 23.5069 75.035 24.1035 74.329 24.5178C73.6264 24.9321 72.8292 25.1392 71.9377 25.1392C71.0461 25.1392 70.2473 24.9321 69.5414 24.5178C68.8387 24.1001 68.2819 23.5019 67.8709 22.723C67.4632 21.9408 67.2594 21.0028 67.2594 19.9091C67.2594 18.812 67.4632 17.8741 67.8709 17.0952C68.2819 16.313 68.8387 15.7147 69.5414 15.3004C70.2473 14.8861 71.0461 14.679 71.9377 14.679C72.8292 14.679 73.6264 14.8861 74.329 15.3004C75.035 15.7147 75.5918 16.313 75.9995 17.0952C76.4105 17.8741 76.6159 18.812 76.6159 19.9091ZM74.7615 19.9091C74.7615 19.1368 74.6406 18.4856 74.3986 17.9553C74.16 17.4216 73.8285 17.0189 73.4043 16.7472C72.9801 16.4721 72.4912 16.3345 71.9377 16.3345C71.3842 16.3345 70.8953 16.4721 70.4711 16.7472C70.0468 17.0189 69.7137 17.4216 69.4718 17.9553C69.2331 18.4856 69.1138 19.1368 69.1138 19.9091C69.1138 20.6813 69.2331 21.3343 69.4718 21.8679C69.7137 22.3982 70.0468 22.8009 70.4711 23.076C70.8953 23.3478 71.3842 23.4837 71.9377 23.4837C72.4912 23.4837 72.9801 23.3478 73.4043 23.076C73.8285 22.8009 74.16 22.3982 74.3986 21.8679C74.6406 21.3343 74.7615 20.6813 74.7615 19.9091ZM77.6985 27.456V23.4936H78.3796C78.6083 23.3113 78.8221 23.0545 79.021 22.723C79.2198 22.3916 79.3888 21.9375 79.5281 21.3608C79.6673 20.7841 79.7634 20.0384 79.8164 19.1236L80.0849 14.8182H86.5927V23.4936H87.7262V27.446H85.9563V25H79.4684V27.456H77.6985ZM80.5273 23.4936H84.8228V16.3643H81.7454L81.5863 19.1236C81.5432 19.8163 81.4736 20.4361 81.3775 20.983C81.2814 21.5298 81.1604 22.0121 81.0146 22.4297C80.8687 22.844 80.7063 23.1986 80.5273 23.4936ZM89.2289 25V14.8182H93.0471C93.8292 14.8182 94.4855 14.964 95.0158 15.2557C95.5494 15.5473 95.9521 15.9484 96.2239 16.4588C96.499 16.9659 96.6365 17.5426 96.6365 18.1889C96.6365 18.8419 96.499 19.4219 96.2239 19.929C95.9488 20.4361 95.5428 20.8355 95.0059 21.1271C94.4689 21.4155 93.8077 21.5597 93.0222 21.5597H90.4917V20.0433H92.7736C93.231 20.0433 93.6055 19.9638 93.8972 19.8047C94.1889 19.6456 94.4043 19.4268 94.5435 19.1484C94.686 18.87 94.7573 18.5502 94.7573 18.1889C94.7573 17.8277 94.686 17.5095 94.5435 17.2344C94.4043 16.9593 94.1872 16.7455 93.8922 16.593C93.6006 16.4373 93.2244 16.3594 92.7637 16.3594H91.0733V25H89.2289ZM107.337 19.9091C107.337 21.0062 107.131 21.9458 106.72 22.728C106.313 23.5069 105.756 24.1035 105.05 24.5178C104.347 24.9321 103.55 25.1392 102.658 25.1392C101.767 25.1392 100.968 24.9321 100.262 24.5178C99.5594 24.1001 99.0026 23.5019 98.5916 22.723C98.1839 21.9408 97.9801 21.0028 97.9801 19.9091C97.9801 18.812 98.1839 17.8741 98.5916 17.0952C99.0026 16.313 99.5594 15.7147 100.262 15.3004C100.968 14.8861 101.767 14.679 102.658 14.679C103.55 14.679 104.347 14.8861 105.05 15.3004C105.756 15.7147 106.313 16.313 106.72 17.0952C107.131 17.8741 107.337 18.812 107.337 19.9091ZM105.482 19.9091C105.482 19.1368 105.361 18.4856 105.119 17.9553C104.881 17.4216 104.549 17.0189 104.125 16.7472C103.701 16.4721 103.212 16.3345 102.658 16.3345C102.105 16.3345 101.616 16.4721 101.192 16.7472C100.768 17.0189 100.434 17.4216 100.192 17.9553C99.9538 18.4856 99.8345 19.1368 99.8345 19.9091C99.8345 20.6813 99.9538 21.3343 100.192 21.8679C100.434 22.3982 100.768 22.8009 101.192 23.076C101.616 23.3478 102.105 23.4837 102.658 23.4837C103.212 23.4837 103.701 23.3478 104.125 23.076C104.549 22.8009 104.881 22.3982 105.119 21.8679C105.361 21.3343 105.482 20.6813 105.482 19.9091ZM109.08 25V14.8182H115.628V16.3643H110.925V18.7507H112.889C113.668 18.7507 114.335 18.8783 114.892 19.1335C115.452 19.3854 115.882 19.7417 116.18 20.2024C116.478 20.6631 116.627 21.205 116.627 21.8281C116.627 22.4545 116.478 23.0064 116.18 23.4837C115.882 23.9576 115.452 24.3288 114.892 24.5973C114.335 24.8658 113.668 25 112.889 25H109.08ZM110.925 23.4886H112.889C113.3 23.4886 113.648 23.4107 113.933 23.255C114.218 23.0992 114.433 22.8937 114.579 22.6385C114.728 22.3833 114.803 22.1065 114.803 21.8082C114.803 21.3774 114.637 21.0111 114.306 20.7095C113.977 20.4046 113.505 20.2521 112.889 20.2521H110.925V23.4886ZM118.241 25V14.8182H120.085V19.1286H124.803V14.8182H126.653V25H124.803V20.6747H120.085V25H118.241ZM128.659 25V14.8182H135.281V16.3643H130.503V19.1286H134.938V20.6747H130.503V23.4538H135.32V25H128.659ZM137.162 25V14.8182H143.785V16.3643H139.007V19.1286H143.442V20.6747H139.007V23.4538H143.824V25H137.162Z" fill="#EA3C3D"/>
</svg>
