<svg width="1190" height="83" viewBox="0 0 1190 83" fill="none" xmlns="http://www.w3.org/2000/svg">
<path d="M60.7439 25.2599H44.7638C44.5507 23.6193 44.1139 22.1385 43.4534 20.8175C42.7929 19.4964 41.9193 18.3672 40.8327 17.4297C39.746 16.4922 38.4569 15.7784 36.9655 15.2884C35.4953 14.777 33.8653 14.5213 32.0756 14.5213C28.9008 14.5213 26.1629 15.299 23.8618 16.8544C21.5819 18.4098 19.8241 20.6577 18.5883 23.598C17.3738 26.5384 16.7666 30.0966 16.7666 34.2727C16.7666 38.6193 17.3845 42.2628 18.6203 45.2031C19.8774 48.1222 21.6352 50.3274 23.8937 51.8189C26.1736 53.2891 28.8689 54.0241 31.9797 54.0241C33.7268 54.0241 35.3142 53.8004 36.7417 53.353C38.1906 52.9055 39.4584 52.2557 40.545 51.4034C41.653 50.5298 42.5585 49.4751 43.2616 48.2393C43.9861 46.9822 44.4868 45.5653 44.7638 43.9886L60.7439 44.0845C60.4669 46.9822 59.6253 49.8374 58.219 52.6499C56.8341 55.4624 54.9271 58.0298 52.4981 60.3523C50.0692 62.6534 47.1075 64.4858 43.6132 65.8494C40.1402 67.2131 36.1558 67.8949 31.6601 67.8949C25.7368 67.8949 20.4314 66.5952 15.7439 63.9957C11.0777 61.375 7.3916 57.5611 4.68564 52.554C1.97967 47.5469 0.626687 41.4531 0.626687 34.2727C0.626687 27.071 2.00098 20.9666 4.74956 15.9595C7.49814 10.9524 11.2162 7.14915 15.9037 4.54971C20.5912 1.95028 25.8433 0.650566 31.6601 0.650566C35.6231 0.650566 39.2879 1.20454 42.6544 2.3125C46.0209 3.39915 48.9825 4.99716 51.5393 7.10653C54.0961 9.1946 56.1736 11.7621 57.7716 14.8089C59.3696 17.8558 60.3604 21.3395 60.7439 25.2599ZM141.177 1.54545V67H125.58V14.2017H101.29V67H85.6936V1.54545H141.177ZM166.933 67V1.54545H212.573V14.3935H182.754V27.8168H210.239V40.6967H182.754V54.152H212.573V67H166.933ZM301.531 54.7592L300.732 82.4688H285.902V67H281.3V54.7592H301.531ZM235.98 67V1.54545H251.193V54.5994H276.25V1.54545H291.687V67H235.98ZM380.134 1.54545V67H364.537V14.2017H340.247V67H324.651V1.54545H380.134ZM405.89 67V1.54545H432.929C437.829 1.54545 442.059 2.50426 445.617 4.42188C449.196 6.31818 451.956 8.97088 453.895 12.38C455.834 15.7678 456.803 19.7095 456.803 24.2053C456.803 28.7223 455.812 32.6747 453.831 36.0625C451.87 39.429 449.069 42.0391 445.425 43.8928C441.782 45.7464 437.456 46.6733 432.449 46.6733H415.766V34.2088H429.509C431.895 34.2088 433.888 33.7933 435.486 32.9624C437.105 32.1314 438.33 30.9702 439.161 29.4787C439.992 27.9659 440.407 26.2081 440.407 24.2053C440.407 22.1811 439.992 20.4339 439.161 18.9638C438.33 17.4723 437.105 16.3217 435.486 15.5121C433.866 14.7024 431.874 14.2976 429.509 14.2976H421.711V67H405.89ZM478.101 67V1.54545H523.74V14.3935H493.922V27.8168H521.407V40.6967H493.922V54.152H523.74V67H478.101ZM544.304 82.7564V54.6634H548.81C550.323 53.6406 551.708 52.2131 552.965 50.3807C554.222 48.527 555.298 45.9276 556.193 42.5824C557.088 39.2159 557.727 34.7734 558.111 29.255L560.156 1.54545H604.932V54.6634H611.964V82.7244H596.75V67H559.517V82.7564H544.304ZM566.964 54.6634H589.719V14.3935H574.346L573.324 29.255C573.047 33.4098 572.599 37.0746 571.981 40.2493C571.363 43.424 570.628 46.1939 569.776 48.5589C568.924 50.9027 567.986 52.9375 566.964 54.6634ZM629.874 67V54.5994L631.664 54.4077C633.965 54.1307 635.84 53.2038 637.289 51.6271C638.738 50.0291 639.835 47.4936 640.581 44.0206C641.348 40.5263 641.838 35.8068 642.051 29.8622L643.106 1.54545H689.032V67H673.723V14.0099H657.711L656.689 35.679C656.326 43.1577 655.378 49.1982 653.844 53.8004C652.31 58.3814 649.934 61.7266 646.717 63.8359C643.521 65.9453 639.228 67 633.837 67H629.874ZM774.179 34.2727C774.179 41.4744 772.794 47.5788 770.024 52.5859C767.255 57.593 763.505 61.3963 758.774 63.9957C754.066 66.5952 748.782 67.8949 742.922 67.8949C737.041 67.8949 731.747 66.5845 727.038 63.9638C722.329 61.343 718.59 57.5398 715.82 52.554C713.071 47.5469 711.697 41.4531 711.697 34.2727C711.697 27.071 713.071 20.9666 715.82 15.9595C718.59 10.9524 722.329 7.14915 727.038 4.54971C731.747 1.95028 737.041 0.650566 742.922 0.650566C748.782 0.650566 754.066 1.95028 758.774 4.54971C763.505 7.14915 767.255 10.9524 770.024 15.9595C772.794 20.9666 774.179 27.071 774.179 34.2727ZM758.007 34.2727C758.007 30.0114 757.4 26.4105 756.186 23.4702C754.992 20.5298 753.267 18.3033 751.008 16.7905C748.771 15.2777 746.076 14.5213 742.922 14.5213C739.79 14.5213 737.095 15.2777 734.836 16.7905C732.578 18.3033 730.841 20.5298 729.627 23.4702C728.434 26.4105 727.837 30.0114 727.837 34.2727C727.837 38.5341 728.434 42.1349 729.627 45.0753C730.841 48.0156 732.578 50.2422 734.836 51.755C737.095 53.2678 739.79 54.0241 742.922 54.0241C746.076 54.0241 748.771 53.2678 751.008 51.755C753.267 50.2422 754.992 48.0156 756.186 45.0753C757.4 42.1349 758.007 38.5341 758.007 34.2727ZM846.79 1.54545V67H831.513V1.54545H846.79ZM790.891 67L811.218 32.3551L791.467 1.54545H810.962L824.897 27.8168H853.821L867.244 1.54545H886.644L867.596 32.1634L887.411 67H868.395L855.834 42.3906H822.756L809.78 67H790.891ZM908.502 67V1.54545H954.141V14.3935H924.322V27.8168H951.808V40.6967H924.322V54.152H954.141V67H908.502ZM977.549 67V1.54545H993.369V27.8168H1019.16V1.54545H1034.95V67H1019.16V40.6967H993.369V67H977.549ZM1058.37 1.54545H1074.16V39.2585H1074.7L1100.46 1.54545H1114.08V67H1098.26V29.223H1097.84L1071.76 67H1058.37V1.54545ZM1189.69 67H1173.9V14.2976H1166.1C1163.73 14.2976 1161.74 14.6385 1160.12 15.3203C1158.5 15.9808 1157.27 16.9822 1156.42 18.3246C1155.58 19.6456 1155.17 21.3182 1155.17 23.3423C1155.17 25.3665 1155.58 27.0284 1156.42 28.3281C1157.25 29.6065 1158.47 30.5653 1160.09 31.2045C1161.73 31.8224 1163.72 32.1314 1166.07 32.1314H1180.23V44.5959H1163.16C1158.17 44.5959 1153.85 43.7756 1150.18 42.1349C1146.54 40.473 1143.73 38.0653 1141.75 34.9119C1139.76 31.7372 1138.77 27.8807 1138.77 23.3423C1138.77 18.8679 1139.74 15.0007 1141.68 11.7408C1143.62 8.45952 1146.38 5.94531 1149.96 4.19815C1153.54 2.42969 1157.78 1.54545 1162.68 1.54545H1189.69V67ZM1152.84 37.0852H1169.77L1153.83 67H1136.54L1152.84 37.0852Z" fill="#1F1F1F" fill-opacity="0.03"/>
</svg>
