<svg width="24" height="24" viewBox="0 0 24 24" fill="none" xmlns="http://www.w3.org/2000/svg">
<g clip-path="url(#clip0_1681_2612)">
<path fill-rule="evenodd" clip-rule="evenodd" d="M12 21.5C17.2467 21.5 21.5 17.2467 21.5 12C21.5 6.75329 17.2467 2.5 12 2.5C6.75329 2.5 2.5 6.75329 2.5 12C2.5 17.2467 6.75329 21.5 12 21.5ZM10.125 11.25C10.125 10.8358 10.4608 10.5 10.875 10.5H12C12.4142 10.5 12.75 10.8358 12.75 11.25V14.75H13.125C13.5392 14.75 13.875 15.0858 13.875 15.5C13.875 15.9142 13.5392 16.25 13.125 16.25H12C11.5858 16.25 11.25 15.9142 11.25 15.5V12H10.875C10.4608 12 10.125 11.6642 10.125 11.25ZM11.6005 7.00049C11.3354 7.00024 11.0793 7.10704 10.8916 7.29426C10.7044 7.48196 10.5994 7.73632 10.5996 8.00142C10.5999 8.26653 10.7054 8.52069 10.8929 8.70804C11.0805 8.89538 11.3348 9.00057 11.5999 9.00049C11.865 9.00041 12.1193 8.89506 12.3067 8.7076C12.4942 8.52014 12.5995 8.26591 12.5996 8.0008C12.5997 7.73569 12.4945 7.4814 12.3072 7.29382C12.1198 7.10625 11.8657 7.00074 11.6005 7.00049Z" fill="white"/>
</g>
<defs>
<clipPath id="clip0_1681_2612">
<rect width="24" height="24" fill="white"/>
</clipPath>
</defs>
</svg>
