<svg width="25" height="24" viewBox="0 0 25 24" fill="none" xmlns="http://www.w3.org/2000/svg">
<path d="M23.2 5.54982C19.6 -0.000183463 12.25 -1.65018 6.54997 1.79982C0.999974 5.24982 -0.800025 12.7498 2.79997 18.2998L3.09998 18.7498L1.89997 23.2498L6.39997 22.0498L6.84998 22.3498C8.79998 23.3998 10.9 23.9998 13 23.9998C15.25 23.9998 17.5 23.3998 19.45 22.1998C25 18.5998 26.65 11.2498 23.2 5.54982ZM20.05 17.0998C19.45 17.9998 18.7 18.5998 17.65 18.7498C17.05 18.7498 16.3 19.0498 13.3 17.8498C10.75 16.6498 8.64998 14.6998 7.14998 12.4498C6.24998 11.3998 5.79997 10.0498 5.64997 8.69982C5.64997 7.49982 6.09998 6.44982 6.84998 5.69982C7.14998 5.39982 7.44998 5.24982 7.74998 5.24982H8.49998C8.79998 5.24982 9.09998 5.24982 9.24998 5.84982C9.54998 6.59982 10.3 8.39982 10.3 8.54982C10.45 8.69982 10.45 8.99982 10.3 9.14982C10.45 9.44982 10.3 9.74982 10.15 9.89982C9.99998 10.0498 9.84998 10.3498 9.69998 10.4998C9.39998 10.6498 9.24998 10.9498 9.39997 11.2498C9.99998 12.1498 10.75 13.0498 11.5 13.7998C12.4 14.5498 13.3 15.1498 14.35 15.5998C14.65 15.7498 14.95 15.7498 15.1 15.4498C15.25 15.1498 16 14.3998 16.3 14.0998C16.6 13.7998 16.75 13.7998 17.05 13.9498L19.45 15.1498C19.75 15.2998 20.05 15.4498 20.2 15.5998C20.35 16.0498 20.35 16.6498 20.05 17.0998Z" fill="#838383"/>
</svg>
